<svg width="116" height="113" viewBox="0 0 116 113" fill="none" xmlns="http://www.w3.org/2000/svg">
<g opacity="0.7" clip-path="url(#clip0_147_2190)">
<path d="M116 78.9754C115.306 79.2539 114.605 79.773 113.91 79.773C76.6263 79.811 39.3422 79.811 2.05806 79.8046C1.71716 79.8046 1.27526 79.9059 1.06062 79.7287C0.618714 79.3678 -0.00626548 78.8424 4.74492e-05 78.3993C0.00636037 77.9625 0.67553 77.4815 1.14269 77.1396C1.36995 76.975 1.79923 77.0826 2.14013 77.0826C39.3485 77.0826 76.5569 77.0827 113.765 77.07C114.624 77.07 115.413 77.1333 116.006 77.8359V78.9754H116Z" fill="#2690C1"/>
<path d="M116 64.4223C115.306 64.7008 114.605 65.2199 113.91 65.2199C76.6263 65.2579 39.3422 65.2579 2.05806 65.2515C1.71716 65.2515 1.27526 65.3528 1.06062 65.1756C0.618714 64.8147 -0.00626548 64.2893 4.74492e-05 63.8462C0.00636037 63.4094 0.67553 62.9284 1.14269 62.5865C1.36995 62.4219 1.79923 62.5295 2.14013 62.5295C39.3485 62.5295 76.5569 62.5296 113.765 62.5169C114.624 62.5169 115.413 62.5802 116.006 63.2828V64.4223H116Z" fill="#2690C1"/>
<path d="M6.85593 45.6786C6.9885 45.514 7.22208 45.1405 7.53142 44.8494C7.70818 44.6784 8.00489 44.6341 8.25109 44.5392C13.655 42.5452 15.814 38.5318 14.5261 32.8917C14.4756 32.6701 14.4188 32.4485 14.3873 32.227C14.261 31.442 14.564 30.8533 15.3153 30.6255C16.0854 30.3912 16.622 30.7647 16.9503 31.4737C17.3606 32.3663 17.7079 33.2968 18.2066 34.1324C20.5108 37.9558 23.9261 39.3674 28.2567 38.3546C28.585 38.2786 28.9133 38.1774 29.2416 38.1014C30.0875 37.9115 30.7693 38.1141 31.0344 39.0129C31.287 39.8612 30.8324 40.3803 30.0938 40.7031C29.9234 40.7791 29.734 40.8234 29.5572 40.8867C24.3617 42.7857 22.1395 46.875 23.3642 52.2873C23.4337 52.5848 23.5031 52.876 23.5599 53.1735C23.6988 53.9648 23.3705 54.5282 22.6256 54.7624C21.8554 55.0093 21.3125 54.6295 20.9906 53.9268C20.6118 53.1039 20.3088 52.243 19.8606 51.4581C17.5942 47.4827 14.0211 45.9635 9.58943 47.0396C9.1854 47.1346 8.78769 47.2865 8.38366 47.3371C7.51248 47.4511 6.80543 46.7927 6.84962 45.6786H6.85593ZM20.3088 47.0776C21.2242 45.2482 22.2405 43.2225 23.1496 41.4057C21.3693 40.4056 19.3618 39.2788 17.6321 38.304C16.7104 40.146 15.7003 42.1717 14.7976 43.9821C16.5652 44.976 18.5412 46.0837 20.3088 47.0776Z" fill="#2690C1"/>
<path d="M67.6686 14.1924C62.7067 14.167 59.2851 17.2182 58.6348 22.2317C58.597 22.5292 58.5717 22.833 58.496 23.1306C58.3066 23.9092 57.8015 24.289 57.0061 24.194C56.2549 24.1054 55.914 23.618 55.8572 22.8774C55.7625 21.7506 55.7498 20.5985 55.5099 19.5034C54.6388 15.5533 51.9936 13.2365 47.9786 12.7807C47.644 12.7427 47.3031 12.6984 46.9686 12.6351C46.1794 12.4769 45.788 11.9641 45.8575 11.1792C45.9269 10.3689 46.4572 9.99544 47.2463 9.97645C47.8902 9.95746 48.5342 10.0081 49.1718 9.9448C53.7613 9.50802 56.6589 6.63412 57.2839 1.91814C57.3218 1.62062 57.3533 1.31677 57.4291 1.02558C57.6185 0.297611 58.1109 -0.0568793 58.8495 0.0127527C59.5944 0.0760545 59.9921 0.525497 60.0489 1.27879C60.1247 2.29795 60.1121 3.32977 60.2951 4.32993C61.0843 8.50152 63.8683 10.9956 68.1358 11.4387C68.4704 11.4767 68.9312 11.4197 69.1143 11.616C69.5057 12.0401 70.0044 12.6098 69.9729 13.0909C69.9476 13.4834 69.2658 13.9138 68.7923 14.1734C68.5019 14.3316 68.0537 14.205 67.6749 14.205L67.6686 14.1924ZM62.0312 12.3819C60.8065 10.888 59.4618 9.24215 58.2624 7.77355C56.8672 9.04592 55.2701 10.4955 53.8496 11.7932C55.0617 13.2618 56.4316 14.9267 57.6374 16.3953C59.0326 15.1229 60.5982 13.6859 62.0249 12.3819H62.0312Z" fill="#2690C1"/>
<path d="M76.7716 43.7225C80.1742 43.8365 82.2449 42.2919 83.1224 39.0762C83.3812 38.1203 83.5075 36.9492 84.8774 37.1898C86.2157 37.424 85.9821 38.5444 85.9442 39.5573C85.8243 42.9249 87.5162 45.0772 90.8052 45.8242C91.1335 45.9001 91.5627 45.9001 91.7648 46.109C92.0993 46.4635 92.4971 46.9699 92.4655 47.3877C92.4339 47.7992 91.9605 48.2296 91.5817 48.5398C91.3986 48.6917 91.0009 48.6284 90.7105 48.6031C86.9922 48.2549 84.669 49.9388 83.7915 53.6166C83.7031 53.9774 83.6463 54.4648 83.3938 54.6421C83.0024 54.9143 82.3774 55.1991 82.0113 55.0536C81.5946 54.8953 81.1843 54.3066 81.0896 53.8382C80.9318 53.0722 81.1212 52.243 81.0138 51.4643C80.654 48.7803 79.0821 47.1092 76.4243 46.4951C76.1655 46.4382 75.9004 46.4065 75.6479 46.3432C74.8461 46.128 74.3853 45.6216 74.5305 44.7733C74.6694 43.9884 75.2249 43.6466 76.014 43.6782C76.317 43.6909 76.6137 43.7225 76.7652 43.7289L76.7716 43.7225ZM85.8243 46.4888C85.1488 45.5266 84.5112 44.6088 83.8799 43.7099C83.0024 44.3935 82.0934 45.1025 81.2095 45.7988C81.8724 46.7357 82.5353 47.6726 83.1729 48.5715C84.0567 47.8751 84.9342 47.1851 85.8243 46.4888Z" fill="#2690C1"/>
<path d="M72.4468 88.2743C75.496 88.2617 77.9075 90.6671 77.9138 93.7246C77.9138 96.6871 75.4707 99.1623 72.5289 99.1686C69.5303 99.1812 67.0367 96.6872 67.043 93.6866C67.0493 90.7115 69.4735 88.2807 72.4468 88.2743ZM72.491 91.009C70.9759 91.0027 69.7512 92.2244 69.7639 93.731C69.7765 95.1742 70.9759 96.4023 72.4153 96.4466C73.8862 96.4909 75.174 95.2439 75.1867 93.7563C75.2056 92.2244 74.0188 91.0216 72.491 91.0153V91.009Z" fill="#2690C1"/>
<path d="M14.3425 88.2744C17.3854 88.2554 19.8285 90.6735 19.8411 93.712C19.8537 96.6492 17.3854 99.1497 14.4562 99.175C11.4449 99.194 8.97656 96.7315 8.97656 93.7057C8.97656 90.7115 11.3628 88.2934 14.3489 88.2807L14.3425 88.2744ZM14.3678 91.009C12.8464 91.0154 11.6659 92.2371 11.6911 93.769C11.7164 95.2249 12.9221 96.4277 14.3678 96.4467C15.8387 96.4657 17.1202 95.1933 17.1202 93.7184C17.1202 92.2181 15.8892 91.009 14.3678 91.0154V91.009Z" fill="#2690C1"/>
<path d="M43.4199 88.2744C46.4628 88.2744 48.8806 90.6925 48.8743 93.7437C48.8743 96.6936 46.3933 99.175 43.4578 99.1687C40.4465 99.1687 37.9845 96.6809 37.9971 93.6677C38.0097 90.6862 40.4339 88.2807 43.4136 88.2744H43.4199ZM40.7243 93.7247C40.7306 95.2186 42.0058 96.4657 43.483 96.4403C44.9224 96.415 46.1345 95.1933 46.1534 93.75C46.1724 92.2371 44.9729 91.0154 43.4452 91.0091C41.9238 91.0027 40.7117 92.2118 40.7243 93.7247Z" fill="#2690C1"/>
<path d="M34.3675 107.518C34.3864 110.474 31.9622 112.956 29.0078 113C26.0091 113.044 23.5029 110.576 23.4903 107.562C23.4777 104.575 25.8639 102.144 28.85 102.118C31.8991 102.087 34.3422 104.48 34.3675 107.524V107.518ZM28.9131 104.84C27.3854 104.84 26.1922 106.056 26.2175 107.581C26.2427 109.037 27.4359 110.234 28.8878 110.265C30.3777 110.291 31.6403 109.05 31.6466 107.556C31.6466 106.037 30.4534 104.847 28.9131 104.847V104.84Z" fill="#2690C1"/>
<path d="M57.965 102.118C61.0078 102.125 63.413 104.562 63.3941 107.613C63.3751 110.563 60.8815 113.032 57.946 113.006C54.9158 112.975 52.4853 110.506 52.5169 107.48C52.5485 104.492 54.9663 102.112 57.965 102.118ZM55.2378 107.499C55.2125 108.999 56.4372 110.259 57.9334 110.272C59.3791 110.284 60.6164 109.101 60.6669 107.651C60.7237 106.132 59.5558 104.891 58.0281 104.853C56.494 104.815 55.2693 105.973 55.2378 107.499Z" fill="#2690C1"/>
<path d="M92.4153 107.575C92.4153 110.531 89.947 113 87.0051 113C83.9876 113 81.5255 110.525 81.5381 107.512C81.5508 104.524 83.956 102.125 86.9483 102.118C89.9974 102.106 92.4153 104.53 92.4153 107.575ZM84.259 107.588C84.2843 109.082 85.5595 110.316 87.043 110.272C88.495 110.227 89.6881 109.012 89.6881 107.562C89.6881 106.043 88.495 104.847 86.9609 104.847C85.4332 104.847 84.2401 106.056 84.259 107.581V107.588Z" fill="#2690C1"/>
<path d="M106.953 93.7816C106.934 96.7378 104.447 99.2002 101.518 99.1686C98.5065 99.1306 96.0381 96.6112 96.0887 93.6297C96.1392 90.6482 98.5823 88.2617 101.556 88.2743C104.605 88.287 106.972 90.7051 106.953 93.7816ZM101.53 91.0026C100.028 91.0026 98.7843 92.2434 98.8095 93.731C98.8285 95.1742 100.034 96.396 101.48 96.4339C102.957 96.4719 104.226 95.2312 104.232 93.731C104.245 92.1927 103.071 91.009 101.537 91.0026H101.53Z" fill="#2690C1"/>
<path d="M27.0449 12.3249C27.0449 12.8504 27.2217 13.4707 27.0007 13.8758C26.7419 14.3569 26.1801 14.9013 25.6813 14.9836C24.9553 15.1039 24.4187 14.5532 24.3872 13.7492C24.3493 12.8124 24.3556 11.8692 24.3809 10.926C24.3998 10.1347 24.8291 9.64728 25.6245 9.59664C26.4894 9.53967 26.9565 10.0461 27.0639 10.8563C27.127 11.3374 27.0765 11.8312 27.0765 12.3186C27.0702 12.3186 27.0575 12.3186 27.0512 12.3186L27.0449 12.3249Z" fill="#2690C1"/>
<path d="M29.8602 17.8131C29.3741 17.8131 28.8817 17.8447 28.3956 17.8068C27.6002 17.7371 27.051 17.2117 27.1962 16.4774C27.2972 15.9773 27.859 15.2747 28.3135 15.1924C29.3236 14.9962 30.4094 15.0595 31.4511 15.1608C32.2086 15.2367 32.7515 15.8381 32.5243 16.585C32.3728 17.0725 31.7983 17.5346 31.3059 17.7814C30.9145 17.9777 30.3463 17.8194 29.8602 17.8194V17.8131Z" fill="#2690C1"/>
<path d="M24.3804 20.6237C24.3804 20.13 24.2289 19.5666 24.4183 19.1615C24.6392 18.6867 25.1442 18.0284 25.5356 18.022C26.0217 18.0157 26.8614 18.5284 26.9371 18.9336C27.1391 20.0287 27.1454 21.2061 26.9561 22.3076C26.8866 22.7254 26.047 23.3204 25.5988 23.2887C25.1632 23.2571 24.6518 22.5861 24.4056 22.086C24.2099 21.6872 24.3678 21.1175 24.3678 20.6301L24.3804 20.6237Z" fill="#2690C1"/>
<path d="M21.4956 17.8195C21.0411 17.8195 20.5866 17.8385 20.1383 17.8195C19.3303 17.7752 18.8631 17.2941 18.8379 16.5218C18.8126 15.7368 19.2861 15.2051 20.0626 15.1418C21.0411 15.0658 22.0322 15.0658 23.0044 15.1418C23.7746 15.1988 24.2544 15.6925 24.2417 16.5028C24.2228 17.3004 23.7746 17.7625 22.9728 17.8195C22.4867 17.8511 21.988 17.8195 21.5019 17.8258L21.4956 17.8195Z" fill="#2690C1"/>
<path d="M104.226 27.1628C103.778 27.1628 103.248 27.3147 102.894 27.1248C102.402 26.8652 101.745 26.3715 101.707 25.9347C101.676 25.4916 102.244 24.6623 102.661 24.5864C103.709 24.3902 104.839 24.3902 105.886 24.5864C106.303 24.6623 106.878 25.4916 106.846 25.9347C106.814 26.3715 106.158 26.8779 105.659 27.1248C105.268 27.321 104.706 27.1628 104.214 27.1628H104.226Z" fill="#2690C1"/>
<path d="M96.2217 27.1628C95.7734 27.1628 95.3189 27.1881 94.8707 27.1628C94.069 27.1058 93.5197 26.5804 93.646 25.8524C93.7344 25.3523 94.3025 24.6497 94.7571 24.5547C95.7293 24.3522 96.7772 24.4155 97.781 24.5104C98.5385 24.5801 99.094 25.1878 98.892 25.9157C98.7595 26.4031 98.1661 26.8716 97.6673 27.1185C97.2759 27.3147 96.7078 27.1564 96.2217 27.1564V27.1628Z" fill="#2690C1"/>
<path d="M98.9547 21.7441C98.9547 21.2884 98.7968 20.7503 98.9925 20.4021C99.264 19.9147 99.7817 19.2627 100.217 19.2437C100.659 19.2247 101.448 19.8261 101.53 20.2629C101.726 21.282 101.726 22.3898 101.524 23.409C101.442 23.8394 100.684 24.3395 100.167 24.4218C99.4597 24.5421 99.0052 23.9724 98.9547 23.2191C98.9231 22.7317 98.9547 22.2316 98.9547 21.7441Z" fill="#2690C1"/>
<path d="M98.961 29.8151C98.961 29.3277 98.7969 28.7453 98.9989 28.3719C99.264 27.8844 99.788 27.2957 100.261 27.2388C100.653 27.1945 101.436 27.7958 101.511 28.2073C101.694 29.2644 101.713 30.3975 101.518 31.4483C101.442 31.8788 100.634 32.4802 100.192 32.4548C99.7564 32.4295 99.2387 31.7648 98.9925 31.2711C98.7968 30.8786 98.9547 30.3089 98.9547 29.8215C98.9547 29.8215 98.9547 29.8215 98.961 29.8215V29.8151Z" fill="#2690C1"/>
</g>
<defs>
<clipPath id="clip0_147_2190">
<rect width="116" height="113" fill="white"/>
</clipPath>
</defs>
</svg>
