<svg width="112" height="110" viewBox="0 0 112 110" fill="none" xmlns="http://www.w3.org/2000/svg">
<g opacity="0.7" clip-path="url(#clip0_147_2171)">
<path d="M111.993 93.3253C112.032 94.378 110.903 94.998 109.497 94.7784C106.077 94.2553 102.671 93.6805 99.232 93.2026C81.3546 90.7421 63.3288 89.8509 45.1675 90.458C30.8127 90.9359 16.6385 92.3825 2.63201 94.7526C1.32879 94.9721 0.341692 94.5717 0.0771761 93.7451C-0.174437 92.9508 0.502983 92.2856 1.84492 92.0531C10.2449 90.6 18.7417 89.5345 27.303 88.7595C38.8578 87.7197 50.4578 87.3452 62.0901 87.5518C76.3352 87.8037 90.4449 88.9984 104.406 91.1167C106.38 91.4137 108.348 91.756 110.322 92.066C111.316 92.221 111.89 92.6602 111.987 93.3189L111.993 93.3253Z" fill="#2690C1"/>
<path d="M57.5157 22.5192C37.9351 22.5386 20.0254 21.0016 2.32861 18.0696C2.18022 18.0438 2.03183 18.005 1.877 17.9792C0.483447 17.7273 -0.219779 17.0557 0.0640924 16.2291C0.33506 15.4218 1.32216 15.086 2.66409 15.2733C9.49635 16.2162 16.3028 17.2882 23.1673 18.0503C35.1415 19.3742 47.206 19.852 59.3157 19.7358C76.1996 19.5679 92.8641 18.0696 109.322 15.2797C110.296 15.1183 111.225 15.1506 111.645 15.8416C111.903 16.2678 111.838 16.9136 111.58 17.3528C111.4 17.6563 110.677 17.8888 110.148 17.9663C103.09 18.9544 96.0576 20.0652 88.9609 20.8466C78.0705 22.0478 67.0899 22.558 57.5157 22.5192Z" fill="#2690C1"/>
<path d="M57.8445 31.4184C44.5606 31.412 33.0703 31.0374 21.6122 30.2366C15.1993 29.7845 8.81222 29.1581 2.41222 28.6027C2.14125 28.5769 1.87674 28.5381 1.61222 28.4929C0.528349 28.3121 -0.110361 27.7115 0.0444781 27.0205C0.205768 26.2972 1.1348 25.8322 2.27674 25.9355C5.74125 26.252 9.19287 26.6588 12.6703 26.8978C21.0251 27.4596 29.3735 28.1571 37.7477 28.4025C47.838 28.6996 57.9477 28.6931 68.0509 28.6092C78.038 28.5252 87.9929 27.8988 97.909 27.0399C101.761 26.704 105.612 26.3295 109.464 25.9807C110.838 25.8516 111.754 26.2326 111.954 27.014C112.148 27.7696 111.432 28.409 110.064 28.5381C104.406 29.0677 98.7477 29.6425 93.0767 30.0622C80.78 30.9793 68.438 31.4055 57.8445 31.4184Z" fill="#2690C1"/>
<path d="M109.877 84.0645C105.87 83.7093 101.877 83.2831 97.8574 83.0118C90.0832 82.4952 82.3154 81.8688 74.5219 81.6686C64.3154 81.4038 54.0832 81.3779 43.8703 81.4748C33.3412 81.5781 22.8445 82.2369 12.3928 83.1539C9.04446 83.4445 5.69607 83.7674 2.34768 84.0709C1.12833 84.1807 0.179943 83.7287 0.0380078 82.986C-0.0974761 82.2821 0.560588 81.6815 1.77349 81.5717C6.96704 81.0873 12.1541 80.5319 17.367 80.1961C25.0251 79.7053 32.6961 79.2468 40.3735 79.0208C48.367 78.7883 56.3864 78.6979 64.3799 78.8399C73.038 78.9949 81.6961 79.3824 90.3219 79.8797C96.9348 80.2607 103.509 80.9582 110.09 81.5459C111.644 81.6879 112.438 82.5598 111.735 83.3347C111.38 83.7287 110.632 83.9547 110.064 84.2582C109.999 84.1872 109.935 84.1226 109.87 84.0516L109.877 84.0645Z" fill="#2690C1"/>
<path d="M82.5351 103.852C82.4318 103.096 82.1609 102.496 82.3157 101.973C82.6125 100.965 84.1415 100.558 85.1092 101.256C86.5351 102.276 87.8705 103.387 89.1544 104.524C89.8834 105.169 89.748 105.931 88.9092 106.642C87.806 107.578 86.677 108.489 85.5286 109.387C84.5802 110.136 83.5351 110.194 82.7351 109.587C81.9286 108.973 81.9544 108.159 82.7996 107.32C82.9157 107.204 83.0254 107.087 83.1802 106.926C81.1222 106.648 79.1351 106.442 77.1867 106.106C73.8834 105.538 70.6383 104.717 67.3093 104.317C60.7415 103.523 54.2125 103.82 47.8125 105.363C43.277 106.461 38.6447 107.062 33.9093 106.939C33.2512 106.92 32.4254 106.538 32.0254 106.112C31.7351 105.802 31.8318 105.04 32.1157 104.653C32.3738 104.298 33.1157 103.975 33.6447 103.981C38.7931 104.052 43.7157 103.096 48.6641 102.07C57.7157 100.203 66.7415 100.539 75.7028 102.683C77.9609 103.226 80.3157 103.484 82.5222 103.852H82.5351Z" fill="#2690C1"/>
<path d="M82.8574 6.10932C80.18 6.56784 77.6509 6.87783 75.2187 7.45259C65.4767 9.72583 55.7735 9.73229 46.0509 7.41385C42.1864 6.49034 38.238 6.06411 34.2122 6.07057C33.6251 6.07057 32.8251 5.99953 32.5025 5.696C32.0896 5.30852 31.8187 4.62397 31.909 4.12024C32.0445 3.35173 32.8832 3.06112 33.838 3.0482C38.2187 2.99008 42.5413 3.39048 46.7283 4.41731C56.1154 6.70992 65.4509 6.62596 74.8445 4.40439C77.509 3.7715 80.3025 3.48735 83.0961 3.02883C82.9542 2.87384 82.7219 2.6478 82.5219 2.4024C81.9864 1.73076 82.038 1.06558 82.7219 0.50373C83.4445 -0.0904112 84.3671 -0.200198 85.1348 0.361652C86.5413 1.39494 87.8896 2.49281 89.1735 3.63589C89.9025 4.28169 89.7606 5.03728 88.9154 5.75413C87.8122 6.68409 86.6832 7.60113 85.5412 8.4988C84.6509 9.20273 83.7541 9.28022 82.9283 8.77649C82.0767 8.25339 81.9735 7.54946 82.6187 6.59367C82.6703 6.51618 82.7025 6.42576 82.8638 6.10286L82.8574 6.10932Z" fill="#2690C1"/>
<path d="M97.0319 55.7782C92.5029 55.7718 88.8191 52.0325 88.8449 47.4732C88.8707 42.9784 92.561 39.3102 97.0642 39.3037C101.613 39.2973 105.322 43.0106 105.303 47.5507C105.284 52.1036 101.58 55.7847 97.0319 55.7782ZM97.0771 42.6038C94.3481 42.6038 92.1287 44.8447 92.1416 47.5894C92.1545 50.2695 94.3932 52.4846 97.0707 52.4781C99.7739 52.4652 101.98 50.2824 102.006 47.5894C102.032 44.8576 99.8061 42.6038 97.0771 42.5973V42.6038Z" fill="#2690C1"/>
<path d="M16.8128 61.3838C12.316 61.3838 8.60634 57.7091 8.58699 53.2208C8.56763 48.6097 12.2709 44.8964 16.8773 44.9093C21.3612 44.9222 25.0386 48.6227 25.0451 53.1304C25.0515 57.6898 21.3676 61.3838 16.8128 61.3902V61.3838ZM21.7547 53.1433C21.7676 50.4632 19.5483 48.2158 16.8773 48.2029C14.1289 48.19 11.8902 50.4051 11.8902 53.1433C11.8902 55.8363 14.0838 58.0579 16.7741 58.0837C19.5031 58.1095 21.7483 55.888 21.7612 53.1433H21.7547Z" fill="#2690C1"/>
<path d="M59.6315 51.2963C59.6315 54.3187 57.1412 56.7921 54.1089 56.7727C51.1153 56.7534 48.6702 54.3058 48.6573 51.3092C48.6444 48.2675 51.1089 45.7876 54.1347 45.7876C57.167 45.7876 59.6315 48.2546 59.625 51.2963H59.6315ZM51.4057 51.2124C51.367 52.7106 52.5541 53.9699 54.0508 54.0281C55.5347 54.0797 56.825 52.885 56.8831 51.3996C56.9411 49.8626 55.7218 48.571 54.1928 48.5452C52.696 48.5194 51.4444 49.7206 51.4057 51.2124Z" fill="#2690C1"/>
<path d="M74.6187 48.571C77.1671 48.5581 79.2445 50.6117 79.2445 53.1433C79.2445 55.6361 77.2187 57.7027 74.7284 57.7285C72.1994 57.7543 70.1155 55.7007 70.1026 53.1562C70.0897 50.6698 72.1413 48.5904 74.6187 48.5774V48.571ZM74.7091 51.6321C73.8897 51.6127 73.1865 52.2714 73.1542 53.0916C73.122 53.9053 73.7736 54.6222 74.5929 54.6738C75.4445 54.7255 76.1929 54.0216 76.1929 53.1691C76.1929 52.3489 75.5284 51.6579 74.7091 51.6386V51.6321Z" fill="#2690C1"/>
<path d="M33.6192 67.0669C31.0901 67.0669 29.0321 64.9874 29.045 62.4429C29.0514 59.963 31.1289 57.9029 33.6127 57.9158C36.1547 57.9287 38.2127 60.0018 38.1869 62.5398C38.1676 65.0326 36.1095 67.0669 33.6192 67.0733V67.0669ZM33.6127 64.0122C34.4321 64.0122 35.1224 63.3406 35.1353 62.5204C35.1482 61.6615 34.4321 60.9447 33.574 60.9705C32.7547 60.9899 32.0901 61.6873 32.0966 62.5075C32.1095 63.3277 32.7934 64.0058 33.6127 64.0122Z" fill="#2690C1"/>
<path d="M28.0062 4.61107C27.9804 5.62498 27.1094 6.45161 26.1029 6.42578C25.09 6.39995 24.2707 5.52811 24.2965 4.52066C24.3223 3.50674 25.1868 2.68011 26.1997 2.7124C27.2126 2.73823 28.0384 3.61007 28.0062 4.61753V4.61107Z" fill="#2690C1"/>
<path d="M37.3347 45.6649C37.3347 46.6788 36.4895 47.5248 35.4831 47.5313C34.4702 47.5313 33.625 46.6917 33.625 45.6778C33.625 44.6639 34.4573 43.8179 35.4766 43.8179C36.4895 43.8179 37.3347 44.6574 37.3411 45.6713L37.3347 45.6649Z" fill="#2690C1"/>
<path d="M63.4704 64.3222C63.4897 65.3297 62.6575 66.1951 61.6446 66.2144C60.6381 66.2338 59.7736 65.4007 59.7542 64.3868C59.7349 63.3729 60.5607 62.514 61.58 62.4946C62.5929 62.4752 63.451 63.3083 63.4704 64.3222Z" fill="#2690C1"/>
<path d="M91.4639 64.3286C91.4833 65.3361 90.6446 66.2015 89.6381 66.2208C88.6317 66.2402 87.7671 65.4071 87.7542 64.3932C87.7349 63.3793 88.5607 62.5204 89.58 62.501C90.593 62.4816 91.451 63.3147 91.4704 64.3286H91.4639Z" fill="#2690C1"/>
<path d="M28.0059 105.492C27.993 106.506 27.1285 107.339 26.122 107.326C25.1091 107.313 24.2769 106.455 24.2962 105.441C24.3091 104.427 25.1672 103.594 26.1801 103.607C27.193 103.619 28.0253 104.478 28.0124 105.492H28.0059Z" fill="#2690C1"/>
</g>
<defs>
<clipPath id="clip0_147_2171">
<rect width="112" height="110" fill="white"/>
</clipPath>
</defs>
</svg>
