<svg width="112" height="107" viewBox="0 0 112 107" fill="none" xmlns="http://www.w3.org/2000/svg">
<g opacity="0.7" clip-path="url(#clip0_147_1897)">
<path d="M6.28287 87.2432C6.45142 87.1132 6.77109 86.8036 7.13725 86.5931C7.3523 86.4755 7.64291 86.5064 7.89864 86.4816C13.5306 85.974 16.611 82.5377 16.861 76.5011C16.8726 76.2658 16.8784 76.0244 16.9017 75.7891C16.9888 74.9656 17.4247 74.4579 18.1978 74.4394C18.9824 74.4208 19.3951 74.9409 19.5229 75.7457C19.6799 76.7549 19.7612 77.7889 20.0228 78.7672C21.2085 83.2497 24.0796 85.6272 28.4329 85.8068C28.7642 85.8192 29.1013 85.8068 29.4326 85.8254C30.2812 85.8687 30.874 86.2588 30.8915 87.2432C30.9089 88.1657 30.3451 88.562 29.5663 88.6796C29.3861 88.7106 29.1943 88.6982 29.0142 88.7167C23.6031 89.1811 20.4412 92.6793 20.1971 98.4682C20.1855 98.784 20.1797 99.0998 20.1506 99.4155C20.0751 100.251 19.6217 100.728 18.8545 100.759C18.0583 100.79 17.6456 100.264 17.5236 99.465C17.3782 98.5301 17.3143 97.5767 17.0935 96.6665C15.9775 92.0415 12.9959 89.5154 8.52635 89.3668C8.1195 89.3545 7.70684 89.3916 7.3058 89.3359C6.45142 89.2059 5.95157 88.3515 6.28287 87.237V87.2432ZM18.6511 92.3821C19.9937 90.7971 21.4816 89.0387 22.8126 87.4661C21.3886 85.9616 19.7845 84.2713 18.3954 82.8101C17.047 84.4075 15.5649 86.1659 14.2397 87.7323C15.652 89.2244 17.2329 90.8837 18.6511 92.3821Z" fill="#2690C1"/>
<path d="M96.8187 13.8811C92.2503 13.8564 89.1002 16.8406 88.5015 21.7442C88.4666 22.0352 88.4434 22.3324 88.3736 22.6234C88.1993 23.385 87.7343 23.7565 87.002 23.6636C86.3103 23.5769 85.9965 23.1002 85.9442 22.3758C85.857 21.2737 85.8454 20.1469 85.6245 19.0757C84.8224 15.2123 82.3871 12.9462 78.6906 12.5005C78.3826 12.4633 78.0687 12.42 77.7607 12.3581C77.0341 12.2033 76.6738 11.7018 76.7377 10.934C76.8017 10.1415 77.2899 9.77624 78.0164 9.75767C78.6092 9.73909 79.2021 9.78863 79.7891 9.72671C84.0145 9.2995 86.6823 6.4886 87.2577 1.876C87.2926 1.585 87.3216 1.28782 87.3914 1.00301C87.5657 0.290998 88.0191 -0.0557207 88.6991 0.0123848C89.3849 0.074299 89.7511 0.513889 89.8034 1.25067C89.8732 2.24748 89.8615 3.25669 90.0301 4.23493C90.7566 8.31507 93.3198 10.7545 97.2488 11.1879C97.5568 11.225 97.9811 11.1693 98.1497 11.3612C98.51 11.7761 98.9692 12.3333 98.9401 12.8038C98.9169 13.1877 98.2891 13.6087 97.8532 13.8626C97.5859 14.0174 97.1732 13.8935 96.8245 13.8935L96.8187 13.8811ZM91.6284 12.1104C90.5009 10.6492 89.2629 9.03946 88.1586 7.60306C86.8741 8.84753 85.4036 10.2654 84.0959 11.5346C85.2118 12.971 86.4731 14.5994 87.5832 16.0358C88.8677 14.7913 90.3091 13.3858 91.6226 12.1104H91.6284Z" fill="#2690C1"/>
<path d="M91.3608 67.375C91.0295 67.375 90.6343 67.4926 90.3785 67.3502C90.0124 67.1459 89.5242 66.7558 89.5009 66.4153C89.4777 66.0686 89.902 65.4123 90.21 65.3566C90.983 65.2018 91.82 65.2018 92.5988 65.3566C92.9068 65.4185 93.3311 66.0686 93.3079 66.4153C93.2846 66.7558 92.7964 67.1583 92.4302 67.3502C92.1396 67.505 91.7212 67.3811 91.3608 67.3811V67.375Z" fill="#2690C1"/>
<path d="M85.444 67.3749C85.1127 67.3749 84.7756 67.3935 84.4443 67.3749C83.8515 67.3316 83.4447 66.9168 83.5377 66.3472C83.6016 65.9509 84.0201 65.4061 84.363 65.3318C85.0837 65.177 85.8567 65.2265 86.6007 65.3008C87.1586 65.3565 87.5713 65.8333 87.426 66.4091C87.3272 66.793 86.8913 67.1582 86.5193 67.3502C86.2287 67.505 85.8102 67.3811 85.4499 67.3811L85.444 67.3749Z" fill="#2690C1"/>
<path d="M87.461 63.1153C87.461 62.7562 87.3448 62.3351 87.4901 62.0627C87.6935 61.6789 88.0713 61.165 88.391 61.1526C88.7223 61.1402 89.3035 61.6107 89.3616 61.9513C89.5069 62.75 89.5069 63.623 89.3616 64.4278C89.2977 64.7622 88.7397 65.1584 88.3619 65.2265C87.8388 65.3194 87.5017 64.8736 87.4668 64.2854C87.4436 63.9016 87.4668 63.5115 87.4668 63.1276L87.461 63.1153Z" fill="#2690C1"/>
<path d="M87.4668 69.4615C87.4668 69.0776 87.3447 68.6256 87.4958 68.3284C87.6876 67.9446 88.0771 67.4802 88.4258 67.4369C88.7164 67.3997 89.2976 67.8765 89.3499 68.1984C89.4836 69.0281 89.501 69.9196 89.3557 70.7431C89.2976 71.0836 88.7048 71.5542 88.3735 71.5356C88.0538 71.517 87.6702 70.9969 87.4842 70.6007C87.3389 70.2911 87.4552 69.8453 87.4552 69.4615H87.4668Z" fill="#2690C1"/>
<path d="M112 37.2909C111.924 37.5323 111.849 37.7738 111.773 38.0215C110.989 40.5785 108.704 42.0583 106.199 41.6373C103.857 41.241 102.096 38.9749 102.113 36.3807C102.137 33.8485 103.944 31.5948 106.24 31.2419C108.757 30.8518 111.023 32.3563 111.791 34.9196C111.855 35.1363 111.93 35.353 112 35.5635V37.2971V37.2909ZM107.036 33.7742C105.641 33.7803 104.525 35.0001 104.543 36.486C104.56 37.9224 105.682 39.1173 107.03 39.1297C108.402 39.1483 109.565 37.9162 109.565 36.4488C109.565 34.9691 108.431 33.768 107.036 33.7742Z" fill="#2690C1"/>
<path d="M87.8856 97.0751C86.0141 95.2611 83.9217 94.5986 81.8177 93.9918C79.6381 93.3603 78.7954 92.5802 78.7663 91.0509C78.7315 89.4907 79.6091 88.6239 81.8351 87.9862C82.3815 87.8314 82.9162 87.6518 83.4625 87.4908C87.1474 86.4073 89.5072 83.8998 90.5243 79.9745C90.7568 79.0891 90.9835 78.1975 91.2217 77.3184C91.6286 75.8138 92.605 74.947 93.8605 74.9718C95.0926 74.9966 95.9703 75.82 96.4062 77.2812C96.8944 78.9219 97.2722 80.6184 97.9697 82.1539C98.5741 83.4788 99.5506 84.6118 100.504 86.0359C102.056 83.4417 102.933 81.0022 103.543 78.4514C103.654 77.987 103.712 77.5041 103.834 77.0459C104.119 75.9501 104.898 75.4114 105.863 75.6219C106.822 75.8262 107.443 76.7735 107.112 77.9251C106.38 80.4822 105.525 83.0021 104.688 85.522C104.491 86.1164 104.148 86.6612 103.805 87.3794C104.741 87.6642 105.613 87.9428 106.496 88.1967C108.042 88.6424 108.844 89.5835 108.856 90.9828C108.867 92.3944 108.083 93.3417 106.548 93.8061C105.427 94.1466 104.311 94.4933 103.206 94.8958C100.341 95.9359 98.423 97.9977 97.4524 101.044C97.0513 102.295 96.7317 103.57 96.3713 104.833C95.9703 106.245 95.1101 106.994 93.8721 107.006C92.5702 107.025 91.6809 106.282 91.2624 104.814C90.8323 103.291 90.4081 101.762 90.007 100.313C87.6705 100.889 85.5084 101.576 83.2998 101.948C72.3265 103.774 60.9637 98.0844 55.1923 87.9614C54.7854 87.2494 54.4483 86.5745 53.5939 86.234C53.1813 86.073 52.6698 85.1195 52.786 84.7233C53.1522 83.4664 52.4954 82.4882 52.3385 81.3861C52.0886 79.5596 51.1122 79.0767 49.5254 78.7671C37.8023 76.4701 28.4797 65.6785 27.1487 53.0356C25.4225 36.5851 35.9018 22.0476 51.2168 19.6454C64.7707 17.5217 78.0514 26.5488 82.0444 40.659C82.3582 41.7673 82.7941 42.2564 83.8636 42.2626C84.5145 42.2688 85.1655 42.4917 85.9327 42.6465C85.8513 42.1821 85.7816 41.8478 85.7293 41.501C85.5433 40.2442 86.078 39.3155 87.0893 39.1297C88.0134 38.9626 88.7981 39.6189 89.0654 40.82C89.234 41.563 89.2921 42.3369 89.5304 43.0427C89.6815 43.4947 89.9954 44.0395 90.3732 44.2191C99.2716 48.5159 104.857 55.6979 107.042 65.8457C107.234 66.7434 107.362 67.6598 107.438 68.5761C107.536 69.7772 107.002 70.5326 106.049 70.6688C105.049 70.8174 104.34 70.1982 104.101 68.9785C103.776 67.3378 103.602 65.6352 103.096 64.0564C99.8993 54.0572 93.3606 48.0392 83.6834 45.866C83.5439 45.835 83.3986 45.866 83.0266 45.866C83.0266 48.4168 83.2126 50.9491 82.9859 53.4381C82.5849 57.8959 81.0389 61.976 78.7489 65.728C78.0049 66.9416 77.104 67.2635 76.209 66.6753C75.3023 66.0748 75.1977 64.9974 75.93 63.7406C82.6372 52.2308 80.7773 37.9719 71.1815 29.3411C63.8233 22.7225 55.326 21.088 46.3404 24.7533C37.2851 28.4434 31.8681 35.6997 30.5837 45.9898C28.7586 60.6139 38.3371 73.7335 52.0247 75.5848C58.5749 76.4701 64.5731 74.7737 69.9086 70.5821C70.1818 70.3654 70.4375 70.1239 70.7223 69.932C71.5535 69.3686 72.5066 69.511 73.053 70.254C73.6168 71.0155 73.5645 72.0557 72.7914 72.7243C71.8615 73.5292 70.8734 74.2846 69.8505 74.9532C65.9041 77.5351 61.6147 79.0148 56.9766 79.3182C56.4942 79.3491 56.0118 79.3987 55.326 79.4544C57.1626 85.9492 60.6673 90.9704 65.9447 94.5057C72.7682 99.0812 80.0508 99.7994 87.8914 97.0751H87.8856ZM93.8198 100.796C95.2844 95.7316 98.3997 92.5554 103.079 90.989C98.3126 89.435 95.3135 86.1783 93.8023 81.188C92.3261 86.2278 89.2747 89.4411 84.5668 90.9952C89.2747 92.5802 92.3319 95.7812 93.814 100.796H93.8198Z" fill="#2690C1"/>
<path d="M55.018 64.3474C47.4913 64.2854 41.2432 58.0755 40.8306 50.2C40.4237 42.4236 45.9801 35.4768 53.3906 34.6224C58.8133 33.997 63.1841 36.0712 66.5144 40.5909C66.683 40.82 66.8457 41.0553 66.9678 41.3153C67.3281 42.0954 67.2177 42.8198 66.5551 43.3461C65.8518 43.9033 65.1253 43.8166 64.4976 43.1665C64.2535 42.9127 64.0733 42.5969 63.8641 42.3059C60.6383 37.8914 54.925 36.4798 50.1939 38.9378C45.3757 41.4391 42.9578 46.9742 44.312 52.4041C45.6372 57.7102 50.4555 61.3383 55.7271 60.9854C59.0923 60.7563 61.795 59.2085 63.8699 56.4409C63.9978 56.2676 64.114 56.088 64.2361 55.9146C64.8986 55.0231 65.7356 54.8188 66.4795 55.3636C67.2467 55.927 67.363 56.8867 66.7237 57.8464C64.5732 61.0721 61.6497 63.1153 57.9764 63.9449C57.0057 64.1616 55.9944 64.2173 55.0006 64.3412L55.018 64.3474Z" fill="#2690C1"/>
<path d="M9.98529e-05 28.1771C0.0233484 22.902 4.14416 18.5557 9.09029 18.5866C14.0597 18.6176 18.1282 22.9701 18.1224 28.2514C18.1107 33.576 13.9667 37.9472 8.97986 37.8914C4.01629 37.8419 -0.0231487 33.4708 9.98529e-05 28.1771ZM9.06704 21.6142C5.67275 21.608 2.85386 24.5861 2.84224 28.2019C2.83061 31.8301 5.59719 34.8267 8.9973 34.8638C12.4207 34.901 15.286 31.8734 15.2744 28.2205C15.2628 24.6047 12.4613 21.6142 9.06123 21.608L9.06704 21.6142Z" fill="#2690C1"/>
<path d="M21.1159 52.0512C21.1159 51.5745 21.0635 51.0853 21.1275 50.621C21.2612 49.6242 21.8249 48.9988 22.7433 48.9988C23.65 48.9988 24.2544 49.5685 24.3648 50.5962C24.4695 51.5869 24.545 52.5837 24.5799 53.5867C24.6148 54.6145 24.0975 55.246 23.1908 55.4255C22.3248 55.5989 21.546 54.9859 21.3542 53.9644C21.2379 53.339 21.2321 52.6951 21.1798 52.0574C21.1565 52.0574 21.1391 52.0574 21.1159 52.0574V52.0512Z" fill="#2690C1"/>
<path d="M26.579 61.9203C26.5616 63.1524 26.1315 63.753 25.3468 63.9944C24.5389 64.2421 23.8473 63.8954 23.5218 63.0843C23.0975 62.0318 22.743 60.9235 22.4931 59.8029C22.2955 58.9299 22.7139 58.2117 23.4753 57.8897C24.2193 57.574 25.033 57.704 25.3991 58.515C25.9222 59.6852 26.2593 60.9607 26.579 61.9203Z" fill="#2690C1"/>
<path d="M32.3101 72.6253C32.8448 72.9287 33.2401 73.0649 33.5423 73.3311C34.1933 73.9069 34.8152 74.5322 35.4196 75.1761C36.1636 75.9686 36.2101 76.984 35.5882 77.7456C34.9779 78.4885 34.0363 78.5628 33.2343 77.8446C32.531 77.2131 31.7638 76.594 31.2465 75.7953C30.9326 75.3062 30.828 74.4146 31.014 73.8512C31.1826 73.3373 31.8626 73.0277 32.3101 72.6315V72.6253Z" fill="#2690C1"/>
<path d="M77.9638 23.3974C78.4869 23.7193 78.917 23.8617 79.1902 24.1775C79.8121 24.8833 80.3933 25.651 80.9222 26.4435C81.5267 27.3537 81.4046 28.3629 80.6897 29.0006C80.0039 29.6135 79.1669 29.5392 78.5044 28.7343C77.8999 28.0038 77.2489 27.2794 76.8246 26.425C76.5747 25.9234 76.534 25.0938 76.7258 24.5551C76.9002 24.0722 77.5105 23.7936 77.9638 23.3912V23.3974Z" fill="#2690C1"/>
<path d="M30.8221 69.9444C30.2932 70.6688 30.0084 71.3932 29.5376 71.6037C29.061 71.8142 28.1543 71.7585 27.8579 71.3994C27.0616 70.4397 26.3758 69.3129 25.8759 68.1365C25.6899 67.6969 25.9747 66.731 26.3409 66.3719C26.7129 66.0128 27.7416 65.8085 27.9799 66.0748C28.9971 67.214 29.8282 68.5513 30.8221 69.9444Z" fill="#2690C1"/>
<path d="M45.829 16.2772C45.8173 16.3515 45.8057 16.5125 45.7708 16.6611C45.4686 17.9675 42.0336 19.4968 41.0398 18.7724C40.0749 18.0727 40.0517 16.4134 41.0804 15.7757C41.9697 15.2247 42.9403 14.7851 43.9168 14.4631C44.9397 14.1226 45.8464 15.008 45.8348 16.2772H45.829Z" fill="#2690C1"/>
<path d="M75.721 21.1561C75.7501 22.6482 74.454 23.5831 73.402 22.902C72.5476 22.351 71.7397 21.6761 70.9783 20.9703C70.3622 20.3945 70.1879 19.4906 70.7052 18.8281C71.0888 18.3452 71.9896 17.7879 72.35 17.9922C73.4717 18.6052 74.454 19.5463 75.4595 20.4131C75.6455 20.5741 75.6629 20.9889 75.7152 21.1561H75.721Z" fill="#2690C1"/>
<path d="M25.0675 42.244C24.9164 43.1542 24.806 44.2315 24.5561 45.2716C24.3178 46.2622 23.6145 46.6894 22.7078 46.5161C21.8302 46.3551 21.3361 45.6741 21.3943 44.7392C21.464 43.6309 21.6616 42.5226 21.9115 41.4453C22.144 40.4547 22.8357 40.0151 23.754 40.1947C24.6839 40.3804 25.0908 41.0738 25.0733 42.244H25.0675Z" fill="#2690C1"/>
<path d="M51.7571 12.389C52.6812 12.3704 53.3787 12.9958 53.4775 13.9431C53.5937 14.9832 53.059 15.7695 52.0826 15.9677C51.2805 16.1224 50.4784 16.2648 49.6705 16.3763C48.7638 16.5001 48.0141 15.8872 47.8629 14.9585C47.6944 13.9245 48.1826 13.0948 49.1358 12.8348C49.4787 12.7419 49.8274 12.6738 50.1762 12.6181C50.6993 12.5314 51.2282 12.4695 51.7513 12.3952L51.7571 12.389Z" fill="#2690C1"/>
<path d="M64.8348 13.7759C66.16 14.4136 67.3108 14.8408 68.3395 15.5033C69.0079 15.9367 69.1242 16.8097 68.758 17.6331C68.3918 18.4504 67.7467 18.8095 66.9911 18.568C66.0437 18.2585 65.108 17.856 64.2187 17.3793C63.4457 16.9645 63.1435 16.0915 63.498 15.2556C63.7479 14.6675 64.364 14.2712 64.8348 13.7759Z" fill="#2690C1"/>
<path d="M29.9678 30.2017C28.5671 30.1584 27.8231 28.6972 28.4915 27.5146C29.0204 26.5797 29.6597 25.7067 30.3398 24.8957C30.921 24.2022 31.6707 24.1713 32.3624 24.7409C33.0134 25.2795 33.2691 26.1154 32.8564 26.8584C32.2636 27.9295 31.5022 28.8953 30.7524 29.8488C30.549 30.1088 30.1247 30.1398 29.9678 30.2017Z" fill="#2690C1"/>
<path d="M50.5423 83.8936C50.5365 85.2496 49.6937 86.0544 48.6301 85.8625C47.7292 85.7077 46.84 85.4786 45.9681 85.1938C44.9975 84.8781 44.55 83.9556 44.7941 82.9649C45.0208 82.0486 45.8112 81.5099 46.7528 81.7143C47.613 81.9 48.4557 82.1415 49.3043 82.3891C50.1122 82.6244 50.49 83.2497 50.5423 83.8998V83.8936Z" fill="#2690C1"/>
<path d="M58.0753 12.3642C58.517 12.4262 59.261 12.4881 59.9875 12.6367C60.9 12.8224 61.4173 13.6149 61.3417 14.5993C61.2662 15.559 60.5978 16.2339 59.6678 16.1967C58.9645 16.1658 58.2613 16.0296 57.558 15.9553C56.3258 15.8314 55.6167 15.1318 55.6516 14.0421C55.6865 12.8843 56.4421 12.2838 58.0695 12.3642H58.0753Z" fill="#2690C1"/>
<path d="M38.8892 20.2088C38.924 21.6142 35.9017 24.1279 34.7161 23.6698C33.757 23.2983 33.2398 21.8433 33.9488 21.0508C34.809 20.0788 35.8262 19.2243 36.9014 18.5866C37.7732 18.0665 38.8601 19.0757 38.8892 20.215V20.2088Z" fill="#2690C1"/>
<path d="M82.8053 30.8456C83.9968 30.8642 84.2235 32.2139 84.6826 33.2355C85.1127 34.2014 85.7753 35.2044 84.9732 36.3374C84.3397 37.229 83.0378 37.2599 82.5031 36.2817C81.9509 35.2725 81.4743 34.1766 81.1372 33.056C80.7885 31.9105 81.5673 30.8642 82.8111 30.8456H82.8053Z" fill="#2690C1"/>
<path d="M26.753 31.7867C28.0956 31.7619 28.8919 32.864 28.5374 34.0404C28.2235 35.0929 27.805 36.1207 27.3342 37.0989C26.9274 37.9472 26.1893 38.1577 25.4046 37.8295C24.649 37.5076 24.2189 36.7646 24.463 35.9226C24.8234 34.6843 25.3407 33.4955 25.8986 32.3501C26.0672 32.0096 26.5845 31.8796 26.7472 31.7805L26.753 31.7867Z" fill="#2690C1"/>
<path d="M38.8602 77.9004C40.197 78.7733 41.4466 79.4358 42.4928 80.3769C42.8009 80.6555 42.7544 81.931 42.4347 82.3767C42.115 82.8287 41.1793 83.1259 40.6446 82.9587C39.6856 82.6616 38.7963 82.03 37.9303 81.4418C37.2154 80.9589 37.012 80.0983 37.3898 79.3429C37.6629 78.7981 38.279 78.4514 38.8602 77.9004Z" fill="#2690C1"/>
<path d="M35.8784 8.63702C35.5471 8.63702 35.1519 8.75466 34.8961 8.61226C34.53 8.40794 34.0417 8.01788 34.0185 7.67735C33.9952 7.33063 34.4195 6.67434 34.7276 6.61862C35.5006 6.46384 36.3375 6.46384 37.1164 6.61862C37.4244 6.68054 37.8487 7.33063 37.8254 7.67735C37.8022 8.01788 37.314 8.42032 36.9478 8.61226C36.6572 8.76704 36.2387 8.64321 35.8784 8.64321V8.63702Z" fill="#2690C1"/>
<path d="M29.9558 8.63702C29.6245 8.63702 29.2874 8.65559 28.9561 8.63702C28.3632 8.59368 27.9564 8.17885 28.0494 7.60924C28.1133 7.21299 28.5318 6.66815 28.8747 6.59385C29.5954 6.43907 30.3684 6.4886 31.1124 6.5629C31.6703 6.61862 32.083 7.09536 31.9377 7.67116C31.8389 8.05503 31.403 8.42032 31.031 8.61225C30.7404 8.76704 30.3219 8.64321 29.9616 8.64321L29.9558 8.63702Z" fill="#2690C1"/>
<path d="M31.9786 4.37733C31.9786 4.01823 31.8623 3.59721 32.0077 3.32479C32.2111 2.94092 32.5889 2.42704 32.9085 2.41465C33.2398 2.40227 33.821 2.87282 33.8792 3.21335C34.0245 4.01204 34.0245 4.88503 33.8792 5.68991C33.8152 6.02425 33.2573 6.4205 32.8795 6.4886C32.3564 6.58147 32.0193 6.13569 31.9844 5.54751C31.9612 5.16364 31.9844 4.77358 31.9844 4.38971L31.9786 4.37733Z" fill="#2690C1"/>
<path d="M31.9844 10.7235C31.9844 10.3397 31.8623 9.88769 32.0134 9.5905C32.2052 9.20663 32.5946 8.74227 32.9434 8.69893C33.234 8.66179 33.8152 9.13852 33.8675 9.46048C34.0012 10.2901 34.0186 11.1817 33.8733 12.0051C33.8152 12.3457 33.2223 12.8162 32.8911 12.7976C32.5714 12.7791 32.1878 12.259 32.0018 11.8627C31.8565 11.5532 31.9727 11.1074 31.9727 10.7235H31.9844Z" fill="#2690C1"/>
</g>
<defs>
<clipPath id="clip0_147_1897">
<rect width="112" height="107" fill="white"/>
</clipPath>
</defs>
</svg>
