<svg width="19" height="19" viewBox="0 0 19 19" fill="none" xmlns="http://www.w3.org/2000/svg">
<path d="M17.4163 6.81475V13.2605C17.4164 13.9177 17.1649 14.55 16.7136 15.0277C16.2623 15.5054 15.6452 15.7922 14.9891 15.8295L14.8434 15.8334H4.15592C3.49873 15.8335 2.86644 15.582 2.38874 15.1307C1.91105 14.6793 1.62417 14.0623 1.58697 13.4062L1.58301 13.2605V6.81475L9.22418 10.8174C9.30918 10.8619 9.40371 10.8852 9.49967 10.8852C9.59564 10.8852 9.69017 10.8619 9.77517 10.8174L17.4163 6.81475ZM4.15592 3.16675H14.8434C15.4812 3.16667 16.0962 3.40345 16.5693 3.83117C17.0424 4.25888 17.3397 4.84705 17.4037 5.48158L9.49967 9.622L1.59567 5.48158C1.65705 4.87225 1.93376 4.30478 2.37606 3.8812C2.81836 3.45761 3.39726 3.20569 4.00867 3.17071L4.15592 3.16675Z" fill="white"/>
</svg>
