<svg width="24" height="28" viewBox="0 0 24 28" fill="none" xmlns="http://www.w3.org/2000/svg">
<path d="M12.7358 21.1115C6.85409 19.3621 3.50448 13.1773 5.25383 7.29559C6.30493 3.76707 8.95381 1.1505 12.1742 0C6.90876 0.166486 2.11046 3.65525 0.525116 8.98033C-0.488712 12.3871 0.0107472 15.8833 1.63337 18.7509C3.42248 18.2365 5.41535 18.8999 6.50869 20.53C6.68015 20.786 6.82178 21.0518 6.93112 21.3252C8.2481 21.1165 9.62721 21.6681 10.4199 22.8484C10.5491 23.0397 10.6559 23.241 10.7429 23.4448C10.8175 23.4398 10.892 23.4348 10.9666 23.4348C12.0624 23.4348 13.024 24.0014 13.5806 24.8537C14.1373 23.9989 15.0989 23.4348 16.1947 23.4348C16.8234 23.4348 17.4098 23.6212 17.8993 23.9442C20.3569 22.7913 22.4342 20.8555 23.7313 18.3483C20.9408 21.114 16.7662 22.3117 12.7358 21.1115Z" fill="white"/>
<path d="M7.86094 24.9358H7.84106C7.75906 25.6018 7.15772 26.1509 6.34766 26.3423C7.21736 26.5485 7.851 27.1697 7.851 27.9028C7.851 27.1697 8.48216 26.551 9.35187 26.3423C8.54428 26.1485 7.94294 25.5993 7.86094 24.9333V24.9358Z" fill="white"/>
</svg>
