<svg width="368" height="85" viewBox="0 0 368 85" fill="none" xmlns="http://www.w3.org/2000/svg">
<path d="M183.858 49.1261C180.016 49.1261 176.182 49.1261 172.339 49.1261C170.481 49.1261 168.623 49.1513 166.765 49.1009C165.235 49.0588 164.125 48.2769 163.478 46.9065C162.872 45.6201 163.091 44.3758 163.873 43.2239C164.26 42.6606 164.604 42.5008 165.285 42.9717C169.64 45.9816 174.399 46.8224 179.511 45.3931C187.616 43.1146 192.627 35.1105 191.374 26.5094C190.096 17.6981 181.638 11.2747 172.869 12.4517C160.585 14.0996 154.204 27.8042 160.846 38.2718C161.401 39.1462 162.04 39.9701 162.67 40.8445C162.317 41.0799 162.006 41.2733 161.712 41.5003C158.837 43.6611 157.609 46.4693 157.92 50.1098C158.231 53.7419 161.804 58.0467 166.916 57.9626C169.329 57.9206 171.751 57.9626 174.164 57.9626C177.291 57.9626 180.419 57.9542 183.547 57.9626C185.674 57.971 187.187 59.3246 187.397 61.3341C187.599 63.2174 186.38 64.8233 184.396 65.2941C184.194 65.3445 184.001 65.4202 183.833 65.4791V67.1606C184.278 67.1606 184.615 67.1942 184.942 67.1606C189.567 66.5637 193.291 62.5364 192.862 57.2059C192.509 52.8255 188.507 49.1429 183.858 49.1345V49.1261ZM170.792 20.4054C171.129 19.8589 171.541 19.3376 172.003 18.892C173.819 17.1264 176.039 17.1516 177.838 18.9509C179.494 20.6072 180.285 22.7007 180.747 24.9456C181.621 29.2419 181.394 33.4458 179.318 37.3806C178.763 38.4315 177.872 39.3984 176.921 40.1299C175.543 41.1892 173.928 41.0295 172.549 39.9533C170.498 38.3643 169.624 36.0858 169.094 33.6728C168.766 32.2098 168.674 30.688 168.472 29.1915C168.632 26.0722 169.136 23.0875 170.801 20.4054H170.792Z" fill="white"/>
<path d="M101.462 14.0743C100.882 14.4526 100.26 14.7637 99.5114 15.1925V13.7464C99.5114 9.54254 99.5114 5.3387 99.5198 1.13485C99.5198 0.51268 99.4189 0.167965 98.6622 0.193188C96.1904 0.26045 93.7101 0.252042 91.2382 0.285673C90.9103 0.285673 90.574 0.319303 90.2041 0.336119V45.25H99.5114C99.5114 44.7624 99.5114 44.3336 99.5114 43.9132C99.5114 37.3888 99.4946 30.8729 99.5366 24.3485C99.5535 21.4058 101.218 19.3627 104.119 18.7742C105.22 18.5556 106.414 18.5304 107.524 18.6733C109.483 18.9255 110.82 20.0438 111.19 22.0616C111.375 23.0873 111.526 24.1383 111.526 25.1724C111.56 31.4446 111.543 37.7251 111.543 43.9973C111.543 44.4177 111.593 44.838 111.618 45.25H120.808C120.833 45.0062 120.875 44.8296 120.875 44.6447C120.875 37.969 121.018 31.2848 120.833 24.6175C120.514 12.9224 107.684 9.97974 101.454 14.0743H101.462Z" fill="white"/>
<path d="M32.2746 29.9228C32.2578 27.762 32.3166 25.5844 32.0476 23.4488C31.4675 18.7826 29.1638 15.2261 24.6068 13.553C20.2096 11.9471 15.6946 11.7537 11.2302 13.3176C7.51395 14.6208 4.65533 17.0338 2.46093 20.5902C4.45355 20.5902 6.23598 20.607 8.02682 20.5734C8.27905 20.5734 8.56491 20.4137 8.7667 20.2455C10.8602 18.5219 13.3405 17.8409 15.9637 17.555C17.6116 17.3785 19.2511 17.513 20.7729 18.2529C21.8407 18.7742 22.5049 19.6065 22.5553 20.8593C22.6058 22.07 21.9752 22.9192 21.0083 23.3984C20.1423 23.8272 19.1334 24.0206 18.1749 24.2308C15.1565 24.8781 12.1046 25.4078 9.103 26.1309C6.77407 26.6858 4.6133 27.6947 2.7636 29.2501C0.594419 31.0914 -0.170681 33.4708 0.0311037 36.2285C0.333781 40.4744 1.96487 43.6105 6.51344 45.0482C10.3305 46.2589 14.2485 46.4355 18.1413 45.3761C19.6463 44.9641 21.0924 44.3167 22.6142 43.7618C22.673 44.2663 22.7235 44.7707 22.7739 45.2668H32.2998C32.2998 44.8801 32.2998 44.5437 32.2998 44.2074C32.2998 39.4487 32.3082 34.6899 32.2746 29.9228ZM22.6646 38.4902C22.6646 38.7004 22.3788 39.0451 22.1686 39.104C19.7892 39.7009 17.393 40.1549 14.9295 39.6673C12.5418 39.1964 10.9359 37.7671 10.7089 35.9343C10.4146 33.5633 11.5412 31.495 13.887 30.5197C15.619 29.7966 17.4603 29.3426 19.2511 28.7457C20.3525 28.3757 21.4455 27.9722 22.6814 27.535C22.6814 31.268 22.6898 34.8749 22.6562 38.4902H22.6646Z" fill="white"/>
<path d="M279.562 12.3506C270.271 12.048 262.317 19.556 262.242 29.0988C262.174 38.1202 269.523 45.9142 278.342 46.0487C288.053 46.2 295.503 38.9358 295.637 29.1997C295.763 20.2202 288.39 12.6365 279.562 12.3506ZM283.429 37.271C282.95 38.2127 282.227 39.0787 281.453 39.8018C280.016 41.1218 278.183 41.1218 276.619 39.9615C275.257 38.9442 274.45 37.5233 273.844 35.9847C272.903 33.5885 272.6 31.0914 272.634 28.5102C272.835 25.391 273.34 22.3306 275.332 19.7494C275.845 19.0852 276.518 18.463 277.241 18.0426C278.754 17.1767 280.436 17.5298 281.815 18.8666C283.547 20.5565 284.362 22.7089 284.816 25.0126C285.657 29.2417 285.43 33.3783 283.429 37.2795V37.271Z" fill="white"/>
<path d="M154.539 25.5003C154.472 16.42 146.897 8.97079 137.8 9.03805C128.366 9.11372 121.085 16.5882 121.161 26.1393C121.228 35.3373 128.77 42.7697 137.976 42.7193C147.267 42.6688 154.615 35.0346 154.548 25.5003H154.539ZM141.558 35.1944C141.238 35.64 140.843 36.052 140.423 36.4135C138.775 37.826 136.841 37.826 135.202 36.4135C133.596 35.0262 132.78 33.1681 132.217 31.1755C131.174 27.4845 131.275 23.7599 132.301 20.111C132.805 18.3117 133.705 16.6302 135.16 15.327C136.816 13.8388 138.968 13.8893 140.667 15.5204C142.592 17.3617 143.349 19.7747 143.819 22.297C144.038 23.4741 144.08 24.6932 144.164 25.5171C144.038 29.2081 143.534 32.4198 141.549 35.2028L141.558 35.1944Z" fill="white"/>
<path d="M260.216 45.3341V44.5438C260.216 44.5438 260.216 44.4934 260.216 44.4681C260.216 42.1224 260.216 39.7682 260.216 37.4225V27.4846H260.199C260.199 26.5009 260.199 25.5088 260.199 24.5251C260.199 22.3475 259.636 20.296 258.501 18.4379C254.684 12.2162 245.923 10.4254 239.827 14.604C239.575 14.7722 239.315 14.9403 238.936 15.1757V13.1159H229.587V45.3341H238.936V23.8945C238.995 22.3475 239.592 20.9434 240.87 19.9765C243.174 18.2445 245.763 18.1184 248.336 19.1694C249.126 19.4889 249.917 20.3717 250.219 21.1788C250.673 22.3895 250.884 23.76 250.892 25.0632C250.917 27.8209 250.926 30.5786 250.926 33.3364V35.8839C250.926 38.65 250.917 41.4077 250.926 44.1739C250.926 44.2664 250.926 44.3588 250.926 44.4429V45.3425H260.216V45.3341Z" fill="white"/>
<path d="M44.7947 43.888C44.7947 37.5822 44.7947 31.2764 44.7947 24.9707C44.7947 22.6081 45.4673 20.5398 47.7037 19.3627C49.6627 18.337 51.7646 18.2949 53.8413 18.9171C55.2791 19.3459 56.1787 20.4389 56.473 21.9018C56.7084 23.0789 56.8597 24.2896 56.8681 25.4835C56.9102 31.6968 56.8849 37.9101 56.8849 44.1234V45.2668H66.0661C66.0914 44.981 66.1418 44.7371 66.1418 44.5017C66.1418 37.826 66.2007 31.1503 66.0829 24.4746C66.0493 22.8519 65.6626 21.1283 65.0068 19.6402C61.9127 12.5945 52.5382 10.1479 45.8709 14.5283C45.5766 14.7217 45.2823 14.9066 44.8535 15.1757C44.8115 14.419 44.7779 13.8473 44.7358 13.2419C44.4668 13.2083 44.2566 13.1578 44.0548 13.1663C41.6082 13.1831 39.1615 13.1915 36.7149 13.2251C35.4453 13.2419 35.4453 13.2587 35.4453 14.4779C35.4453 24.0878 35.4453 33.7062 35.4453 43.3162V45.2416H44.7947V43.8796V43.888Z" fill="white"/>
<path d="M221.094 42.1813C222.557 40.9874 223.785 39.5917 224.802 37.7925C222.826 37.7925 221.01 37.7757 219.194 37.8093C218.959 37.8093 218.69 38.0279 218.513 38.2213C217.084 39.6674 215.343 40.4241 213.351 40.7184C208.146 41.4835 203.556 36.9853 204.228 31.6044C204.632 31.6044 205.061 31.6044 205.481 31.6044C212.325 31.6044 219.169 31.5792 226.013 31.6128C226.879 31.6128 227.131 31.327 227.181 30.545C227.349 27.9134 226.996 25.3575 225.987 22.9193C223.272 16.3445 217.285 12.3844 210.164 12.3928C199.84 12.4012 191.877 21.944 193.727 32.1005C196.039 44.8633 211.047 50.3956 221.103 42.1813H221.094ZM208.903 18.1605C210.61 17.3197 212.291 17.3618 213.83 18.4548C216.655 20.4642 217.664 23.4405 218.143 26.7952H204.254C204.178 24.0879 206.137 19.5226 208.903 18.1605Z" fill="white"/>
<path d="M82.4592 39.7013C80.1555 39.3229 78.8271 38.2047 78.5665 35.901C78.3226 33.7654 78.3142 31.5879 78.289 29.4355C78.2806 28.5443 78.2722 27.6531 78.2722 26.7534V17.5386H84.2753V13.133H78.2722V3.67432H68.9229V27.2831H68.9481C68.9481 29.4943 68.9481 31.7056 68.9481 33.9084C68.9481 35.8926 69.4693 37.7591 70.4278 39.4911C72.5886 43.4091 76.0526 45.3428 80.3909 45.8809C82.6694 46.1668 84.9059 45.9398 87.0078 44.9393C87.2853 44.8048 87.6384 44.4516 87.6552 44.1994C87.714 42.4758 87.6888 40.7522 87.6888 38.9194C85.9568 39.6677 84.2669 39.9956 82.4676 39.7013H82.4592Z" fill="white"/>
<path d="M195.191 8.4662C194.972 8.28964 194.745 8.12989 194.51 7.98696C193.131 7.12938 191.718 7.31435 190.718 8.60073C189.053 10.7363 188.523 13.3006 188.002 16.1088C190.659 15.5034 193.038 14.7972 195.098 13.3006C197.183 11.7704 197.192 10.0889 195.191 8.4662Z" fill="white"/>
<path d="M186.918 15.1758C187.153 12.9309 187.456 10.9131 186.733 8.92884C186.413 8.05444 185.816 7.53317 184.841 7.61724C183.168 7.76017 182.411 8.91203 183.025 10.4759C183.773 12.3676 185.245 13.6876 186.909 15.1758H186.918Z" fill="white"/>
<path d="M314.931 8.87852C317.378 8.87852 319.371 6.8859 319.371 4.43926C319.371 1.99262 317.378 0 314.931 0C312.485 0 310.492 1.99262 310.492 4.43926C310.492 6.8859 312.485 8.87852 314.931 8.87852ZM314.931 0.6558C317.017 0.6558 318.715 2.35415 318.715 4.43926C318.715 6.52437 317.017 8.22272 314.931 8.22272C312.846 8.22272 311.148 6.52437 311.148 4.43926C311.148 2.35415 312.846 0.6558 314.931 0.6558Z" fill="white"/>
<path d="M314 4.87619H314.908C315.74 4.87619 315.917 5.15364 315.917 5.77581V5.8683C315.917 6.3055 315.917 6.65862 316.001 6.86041H316.674C316.598 6.66703 316.606 6.27187 316.606 5.96078V5.759C316.606 4.96027 316.27 4.69122 315.917 4.59033C316.346 4.46421 316.699 4.11109 316.699 3.51414C316.699 2.79949 316.178 2.28662 315.194 2.28662H313.311V6.86041H314V4.8846V4.87619ZM314 2.84994H315.051C315.665 2.84994 315.976 3.11058 315.976 3.58141C315.976 4.06905 315.682 4.32128 314.992 4.32128H314V2.84994Z" fill="white"/>
<path d="M297.973 45.2838H298.545C298.646 45.3006 298.747 45.309 298.881 45.309C300.143 45.2922 301.404 45.2838 302.665 45.2838H302.724C303.985 45.2838 305.238 45.2838 306.499 45.2838C306.507 45.2838 306.524 45.2838 306.532 45.2838H307.256V45.2165C307.256 45.2165 307.272 45.2165 307.281 45.2165V0.327881H297.965V0.992088C297.965 1.06776 297.965 1.13502 297.965 1.21069C297.965 15.5878 297.965 29.965 297.948 44.3421C297.948 44.4767 297.957 44.5944 297.973 44.6953V45.2838Z" fill="white"/>
<path d="M126.322 72.6254L123.934 72.2471C123.48 73.6175 122.614 75.1309 121.219 76.2828C121.807 76.5602 122.699 77.1908 123.153 77.6784C123.312 77.5187 123.48 77.3505 123.64 77.174H126.944V77.5776H123.8V83.9842H125.767V82.2102H126.936V83.9506H128.971V82.2102H130.257V82.4372C130.257 82.5801 130.207 82.6138 130.08 82.6138C129.954 82.6138 129.593 82.6306 129.299 82.5969C129.492 82.9669 129.736 83.5386 129.853 83.9842C130.568 83.9842 131.173 83.9674 131.627 83.7572C131.678 84.001 131.712 84.228 131.728 84.4214C132.51 84.4382 133.242 84.4382 133.746 84.3205C134.318 84.2112 134.705 84.0094 135.117 83.4125C135.638 82.681 135.781 80.3521 135.932 74.0715C135.949 73.7941 135.966 73.0794 135.966 73.0794H126.137L126.331 72.6086L126.322 72.6254ZM126.944 81.0331H125.776V80.5286H126.944V81.0331ZM126.944 79.3432H125.776V78.8387H126.944V79.3432ZM130.257 81.0331H128.971V80.5286H130.257V81.0331ZM130.257 79.3432H128.971V78.8387H130.257V79.3432ZM133.629 75.0132C133.519 79.7804 133.368 81.6216 133.074 82.042C132.914 82.269 132.763 82.3363 132.519 82.3363H132.258V77.586H128.971V77.1824H132.485V75.896H131.527L131.888 75.669C131.762 75.4756 131.527 75.2318 131.283 75.0216H133.629V75.0132ZM130.165 75.0132L129.467 75.4336C129.61 75.5597 129.795 75.7279 129.938 75.8876H128.979V75.173H126.944V75.8876H124.649C124.842 75.5933 125.019 75.2991 125.204 75.0048H130.165V75.0132Z" fill="white"/>
<path d="M133.806 68.9934H131.46V69.6997H129.333V71.6839H131.46V72.5919H133.806V71.6839H136.379V69.6997H133.806V68.9934Z" fill="white"/>
<path d="M124.499 68.9934V69.6997H121.716V71.6839H124.499V72.1547H126.845V71.6839H128.829V69.6997H126.845V68.9934H124.499Z" fill="white"/>
<path d="M152.261 68.9934H149.915V69.8089H147.931V71.7932H149.915V72.6592H152.261V71.7932H154.976V69.8089H152.261V68.9934Z" fill="white"/>
<path d="M144.603 72.7095L143.527 72.5161H145.544V71.8015H147.428V69.8173H145.544V69.0017H143.199V69.8173H140.315V71.8015H143.199V72.4489L142.366 72.3059C141.862 73.4914 140.979 74.9123 139.743 75.9969C140.214 76.3248 140.929 77.0899 141.257 77.5776C142.089 76.7788 142.753 75.9297 143.342 75.0553H143.728C143.308 75.8708 142.703 76.7284 142.081 77.3169C142.459 77.4767 143.039 77.7541 143.476 78.0148H141.248V79.7383H145.427V81.4955H144.174V80.1167H142.123V83.1434H149.782C149.942 83.5806 150.076 84.0683 150.093 84.4298C150.909 84.4466 151.707 84.4635 152.237 84.3626C152.809 84.2449 153.263 84.0515 153.666 83.4545C154.137 82.7231 154.331 80.5875 154.482 74.1304C154.482 73.8698 154.499 73.1383 154.499 73.1383H144.376L144.569 72.7179L144.603 72.7095ZM152.145 75.0468C152.027 80.041 151.884 81.9916 151.573 82.4288C151.43 82.6558 151.279 82.7231 151.018 82.7231H150.791V80.0999H148.63V81.4787H147.537V79.7215H151.522V77.9979H147.537V77.3337H150.967V75.7026H145.519C145.587 75.5849 145.637 75.4756 145.696 75.3579L144.569 75.03H152.136L152.145 75.0468ZM144.485 77.3421H145.444V78.0063H143.964C144.124 77.813 144.309 77.586 144.485 77.3421Z" fill="white"/>
<path d="M170.892 74.1388C172.044 73.214 173.069 72.0369 173.885 71.0027L172.304 69.8341L171.766 69.9434H165.797V70.431L164.006 69.9602C163.863 70.8094 163.585 71.9108 163.291 72.8104V69.0017H161.13V72.7431C160.954 71.8687 160.693 70.843 160.433 69.9938L158.675 70.4478C158.986 71.5997 159.323 73.1299 159.44 74.122L161.13 73.6512V74.4163H158.835V76.6107H161.13V77.5691L159.928 77.1656C159.735 78.3174 159.18 79.7383 158.558 80.5623C158.886 81.2433 159.323 82.269 159.482 83.0005C160.248 82.1513 160.786 80.6884 161.122 79.2423V84.4466H163.283V79.2423C163.72 80.1167 164.174 81.1256 164.451 81.8655L166.032 80.1251C165.721 79.6543 164.325 77.6028 163.913 77.132L163.283 77.6028V76.6107H165.141V74.4163H163.283V73.5671L164.62 73.9707C164.964 73.2056 165.385 72.1042 165.788 71.028V72.0705H169.984C169.513 72.6591 168.975 73.2224 168.42 73.6343V75.8624H165.309V78.1072H168.42V81.8823C168.42 82.1261 168.319 82.1934 168.05 82.2102C167.772 82.2102 166.797 82.2102 166.066 82.1597C166.394 82.7903 166.73 83.774 166.848 84.4382C168.151 84.4382 169.143 84.3878 169.891 84.0515C170.656 83.6899 170.883 83.093 170.883 81.9327V78.1072H173.977V75.8624H170.883V74.1388H170.892Z" fill="white"/>
<path d="M191.273 72.6424H187.145C187.288 72.449 187.456 72.2388 187.599 72.0118L185.455 71.768H192.307V69.6409H178.384V74.4417C178.384 76.9472 178.283 80.5456 176.988 82.9502C177.577 83.1604 178.619 83.749 179.073 84.1021C180.486 81.4705 180.713 77.2162 180.713 74.4417V71.7764H184.715C184.614 72.0539 184.488 72.3481 184.328 72.6592H181.579V79.3265H185.253V82.1936C185.253 82.3701 185.186 82.4206 184.959 82.4206C184.749 82.4206 183.967 82.4206 183.395 82.4037C183.656 82.9923 183.95 83.8499 184.026 84.4889C185.119 84.4889 185.993 84.472 186.674 84.1441C187.372 83.8331 187.54 83.2613 187.54 82.2608V79.3349H191.281V72.6676L191.273 72.6424ZM188.826 77.5693H183.866V76.7706H188.826V77.5693ZM188.826 75.1647H183.866V74.3828H188.826V75.1647Z" fill="white"/>
<path d="M182.436 79.604C181.847 80.6634 180.855 81.8993 179.964 82.6644C180.536 82.9587 181.477 83.5556 181.948 83.934C182.797 83.0596 183.915 81.5882 184.664 80.3355L182.436 79.604Z" fill="white"/>
<path d="M187.969 80.5456C188.801 81.6218 189.987 83.1015 190.508 83.9927L192.543 82.8409C191.92 81.9665 190.676 80.5456 189.86 79.5535L187.977 80.5456H187.969Z" fill="white"/>
<path d="M201.976 69.0101H199.63V70.3301H196.099V72.5582H199.63V73.71C198.747 75.5933 197.158 77.4683 195.502 78.5781C196.057 78.9648 197.015 79.7972 197.436 80.2512C197.797 79.9569 198.167 79.6206 198.529 79.2591V84.4635H200.874V76.3753C201.295 75.7447 201.673 75.0889 202.001 74.4415L200.067 73.8361H201.984V72.5498H203.22V70.3217H201.984V69.0017L201.976 69.0101Z" fill="white"/>
<path d="M207.415 73.8447V72.5415H210.829V70.3303H207.415V69.0103H205.036V70.3303H203.716V72.5415H205.036V73.8447H207.415Z" fill="white"/>
<path d="M208.307 82.0926H206.692C206.062 82.0926 205.978 82.0086 205.978 81.2603V78.4269H210.778V76.2157H205.978V74.0969H203.632V81.2519C203.632 83.564 204.204 84.2618 206.348 84.2618H208.525C210.366 84.2618 210.98 83.4126 211.224 80.6633C210.593 80.5204 209.61 80.1252 209.105 79.7385C209.004 81.7059 208.895 82.0842 208.29 82.0842L208.307 82.0926Z" fill="white"/>
<path d="M223.213 73.6009H227.787V71.9614H223.213V71.4401H228.518V69.6997H223.213V69.0103H220.809V69.6997H215.764V71.4401H220.809V71.9614H216.428V73.6009H220.809V74.1221H214.822V75.8625H229.334V74.1221H223.213V73.6009Z" fill="white"/>
<path d="M216.807 79.2509C216.807 80.4532 216.74 81.9161 215.765 82.9587C216.252 83.2698 217.228 84.1946 217.572 84.6486C218.253 83.9508 218.648 83.0091 218.875 82.017H225.005V82.2776C225.005 82.5215 224.904 82.5887 224.618 82.6055C224.374 82.6055 223.264 82.6055 222.566 82.5551C222.844 83.0764 223.155 83.8583 223.264 84.4216C224.584 84.4216 225.627 84.4048 226.392 84.1273C227.157 83.8499 227.418 83.3622 227.418 82.3029V76.4175H216.807V79.2509ZM219.145 78.0738H225.005V78.5278H219.145V78.0738ZM219.136 80.0244H225.005V80.512H219.103C219.119 80.3523 219.136 80.1841 219.136 80.0244Z" fill="white"/>
<path d="M245.343 77.5693L243.569 78.595C243.712 78.7127 243.88 78.8388 244.023 78.9734L240.492 79.0995C242.426 78.4773 244.351 77.7122 246.108 76.8378L244.628 75.5683H248.319V73.811H241.812V73.4243H246.705V71.7848H241.812V71.398H247.487V69.7249H241.812V69.0103H239.432V69.7249H233.85V71.398H239.432V71.7848H234.682V73.4243H239.432V73.811H233.068V75.5683H237.751C237.019 75.8962 236.372 76.1232 236.061 76.2325C235.556 76.409 235.17 76.5267 234.758 76.594C234.951 77.0985 235.229 78.0233 235.329 78.4016C235.699 78.2755 236.204 78.1915 238.55 78.0401C237.574 78.4016 236.759 78.6707 236.338 78.8052C235.212 79.1667 234.564 79.3265 233.833 79.4106C234.009 79.9487 234.27 80.9071 234.337 81.2855C234.724 81.1594 235.17 81.0585 236.515 80.9576C235.649 81.6554 234.186 82.2944 232.841 82.698C233.345 83.0679 234.194 83.8835 234.598 84.3291C235.557 83.9255 236.666 83.337 237.608 82.6728C237.885 83.2277 238.163 83.9423 238.255 84.4804C239.441 84.4804 240.391 84.4468 241.164 84.1357C241.963 83.8078 242.173 83.2277 242.173 82.2019V80.6213L245.654 80.4447C246.016 80.7894 246.302 81.0921 246.52 81.3527L248.403 80.2009C247.722 79.4358 246.318 78.326 245.326 77.5777L245.343 77.5693ZM240.694 75.5683H244.258C243.72 75.8793 243.123 76.1736 242.501 76.4427L239.559 76.552C240.097 76.3418 240.601 76.1148 241.072 75.8877L240.702 75.5598L240.694 75.5683ZM239.912 82.1094C239.912 82.286 239.828 82.3364 239.55 82.3364C239.34 82.3533 238.701 82.3364 238.07 82.3196C238.348 82.1263 238.592 81.9161 238.819 81.6975L236.834 80.9155C237.566 80.8651 238.558 80.7978 239.912 80.739V82.1094Z" fill="white"/>
<path d="M242.628 82.0166C243.881 82.6976 245.621 83.7402 246.42 84.4044L248.261 83.0339C247.319 82.3529 245.545 81.386 244.343 80.7891L242.636 82.0082L242.628 82.0166Z" fill="white"/>
<path d="M263.796 78.1411L262.198 77.3928C261.257 78.0907 259.348 78.7885 257.919 79.1332C258.339 79.4611 258.785 79.9319 259.054 80.2683C260.635 79.8311 262.518 79.0828 263.788 78.1411H263.796Z" fill="white"/>
<path d="M258.769 82.1935C261.14 81.689 263.645 80.8062 265.293 79.5282L263.603 78.7295C262.351 79.688 259.828 80.4867 257.701 80.8566C258.105 81.235 258.534 81.7983 258.777 82.1935H258.769Z" fill="white"/>
<path d="M263.1 73.3234L264.352 72.4322C264.058 72.1043 263.52 71.5662 263.116 71.1963L261.914 71.995C262.301 72.3986 262.839 72.9703 263.1 73.3318V73.3234Z" fill="white"/>
<path d="M267.085 76.9726C266.598 76.9053 265.488 76.712 263.958 76.1066C264.689 76.1066 265.261 76.1066 265.698 75.8796C266.152 75.6358 266.253 75.2658 266.253 74.526V69.6159H261.957V71.1965H264.445V74.5007C264.445 74.6269 264.412 74.6605 264.302 74.6605H263.655C263.815 75.0977 263.932 75.6526 263.949 76.1066C263.79 76.0394 263.621 75.9805 263.462 75.8964C263.546 75.8292 263.638 75.7535 263.722 75.6694L262.697 75.1649C263.285 74.8707 263.865 74.5428 264.437 74.2233L264.143 73.0546C263.268 73.3993 262.47 73.702 261.847 73.9038L262.528 75.0893L262.074 74.8791C261.898 75.0388 261.688 75.1902 261.461 75.3331C261.528 75.1565 261.545 74.9464 261.545 74.6689V69.6243H257.459V71.2049H259.838V74.1476L259.544 73.0378C258.602 73.4162 257.753 73.7693 257.089 73.9795L257.854 75.2995C258.501 74.9548 259.174 74.5848 259.838 74.2233V74.6437C259.838 74.7614 259.787 74.8034 259.661 74.8034C259.544 74.8034 259.224 74.8034 258.93 74.7866C259.073 75.165 259.191 75.6358 259.207 76.0225C259.577 76.0225 259.922 76.0225 260.216 76.0057C259.241 76.4429 258.098 76.8213 257.047 77.0819V69.5654H252.313V75.4508C252.313 77.8134 252.263 81.0672 251.464 83.2784C251.867 83.4886 252.7 84.1696 253.028 84.5479C253.692 82.9168 253.986 80.6468 254.121 78.528L254.575 79.6967C254.768 79.4697 254.961 79.2595 255.163 79.0325V82.1686C255.163 82.3451 255.113 82.4124 254.953 82.4124C254.793 82.4124 254.306 82.4292 253.877 82.3956C254.138 82.9168 254.365 83.8417 254.398 84.3798C255.306 84.3798 255.945 84.3293 256.433 83.993C256.82 83.7324 256.988 83.3288 257.038 82.7403C257.408 83.1943 257.82 83.8921 258.013 84.3966C261.772 83.8585 264.925 82.9337 266.909 80.9494L264.958 80.1171C263.445 81.5968 260.351 82.3788 257.038 82.7067C257.055 82.5469 257.055 82.3788 257.055 82.2022V77.662C257.349 78.0068 257.627 78.4103 257.803 78.7214C259.266 78.2842 260.796 77.662 262.116 76.8633C264.033 78.0152 265.269 78.444 265.824 78.6205C266.085 78.0656 266.657 77.3341 267.111 76.9642L267.085 76.9726ZM255.146 76.8213C254.793 77.1155 254.449 77.393 254.154 77.6032C254.171 76.8381 254.188 76.1066 254.188 75.4592V75.022C254.365 75.2827 254.516 75.5097 254.608 75.703L255.146 75.3163V76.8297V76.8213ZM255.146 73.7609C254.97 73.5507 254.793 73.3405 254.625 73.1555L254.188 73.433V71.6926H255.146V73.7609Z" fill="white"/>
<path d="M258.416 71.2131L257.214 72.0119C257.601 72.4154 258.139 72.9872 258.399 73.3487L259.652 72.4575C259.358 72.1296 258.82 71.5915 258.416 71.2215V71.2131Z" fill="white"/>
<path d="M284.497 81.7395L283.631 81.1678H285.245V80.0412H281.193V79.6965H284.287V78.7044H281.193V78.3933H284.64V77.3507H281.193V77.0228H282.706V75.0554H278.023V77.0228H278.889V77.3507H276.77V77.0228H277.502V75.0554H272.877V77.0228H274.458V77.3507H271.381V78.3933H274.458V78.7044H271.675V79.6965H274.458V80.0412H270.523V81.1678H274.626C273.289 81.5125 271.683 81.7227 270.086 81.8152C270.414 82.1431 270.817 82.7064 271.011 83.1016C271.952 83.0175 272.877 82.8746 273.777 82.698C273.668 83.0259 273.415 83.2025 273.205 83.3034C273.432 83.5304 273.743 84.1946 273.819 84.5897C274.206 84.3964 274.828 84.245 278.637 83.6817C278.603 83.337 278.603 82.6896 278.637 82.2524L275.955 82.5971V82.1095C276.686 81.8488 277.367 81.5378 277.922 81.1846C279.276 82.9082 281.453 83.791 284.53 84.1105C284.741 83.6565 285.161 82.9839 285.522 82.6307C284.673 82.5803 283.875 82.5046 283.143 82.3701C283.614 82.1935 284.068 81.9834 284.497 81.7564V81.7395ZM275.635 76.2241H274.643V75.8626H275.635V76.2241ZM278.889 80.0412H276.77V79.6965H278.889V80.0412ZM278.889 78.7128H276.77V78.4017H278.889V78.7128ZM279.797 75.8626H280.839V76.2241H279.797V75.8626ZM281.066 81.7816C280.646 81.605 280.251 81.3948 279.931 81.1594H282.42C282 81.3696 281.529 81.5798 281.066 81.7816Z" fill="white"/>
<path d="M270.54 73.7187V75.829H272.592V74.7192H283.067V75.829H285.211V73.7187H279.015V73.374H283.765V71.2468H279.015V70.9021H284.757V69.683H279.015V69.0188H276.669V69.683H270.977V70.9021H276.669V71.2468H272.322V73.374H276.669V73.7187H270.54ZM279.015 72.1381H281.504V72.4996H279.015V72.1381ZM274.458 72.4996V72.1381H276.669V72.4996H274.458Z" fill="white"/>
<path d="M365.976 34.2529C360.923 17.2609 345.604 6.12916 328.806 5.59106C339.08 9.26523 347.53 17.6141 350.884 28.872C356.467 47.6379 345.781 67.3792 327.015 72.9619C314.151 76.7874 300.833 72.9619 291.93 64.1422C296.066 72.1464 302.7 78.326 310.536 82.0002C312.1 80.9744 313.966 80.3775 315.976 80.3775C319.473 80.3775 322.542 82.1852 324.316 84.9093C326.09 82.1852 329.167 80.3775 332.657 80.3775C332.9 80.3775 333.136 80.3859 333.371 80.4027C333.649 79.7469 333.985 79.1079 334.397 78.5026C336.928 74.7359 341.325 72.9871 345.529 73.6429C345.882 72.7685 346.336 71.9194 346.882 71.1038C350.372 65.8995 356.728 63.7807 362.437 65.4286C367.607 56.2811 369.205 45.124 365.968 34.2529H365.976Z" fill="white"/>
<path d="M324.711 54.4564C324.711 51.9761 326.846 49.8826 329.789 49.1763C327.056 48.5205 325.022 46.6624 324.744 44.4092H324.677C324.4 46.6624 322.365 48.5205 319.624 49.1679C322.567 49.8658 324.711 51.9677 324.711 54.448V54.4564Z" fill="white"/>
<path d="M113.005 75.8203H109.448H97.6858H94.1293V82.3195H92.1367V84.1019H115.031V82.3195H113.013V75.8203H113.005ZM109.448 82.3195H107.901V77.0058H109.448V82.3195ZM104.336 82.3195H102.789V77.0058H104.336V82.3195ZM97.6858 77.0058H99.2328V82.3195H97.6858V77.0058Z" fill="white"/>
<path d="M109.373 74.4249V67.4297H105.816H100.856H97.291V74.4249H100.856V73.6093H105.816V74.4249H109.373ZM100.847 72.4154V68.6404H105.808V72.4154H100.847Z" fill="white"/>
<path d="M78.7613 57.0542H72.6152V58.4919H78.7613V57.0542Z" fill="white"/>
<path d="M107.035 64.0747H99.6279V65.8571H107.035V64.0747Z" fill="white"/>
<path d="M83.7972 59.1733H67.5872H66.9818H64.4932V63.1754H65.9393V63.6042H68.6297V65.5464H66.469V66.7403H68.6297V68.4975H65.9393V69.6914H74.8767V68.4975H72.1862V66.7403H74.347V65.5464H72.1862V63.6042H74.8767V62.4187H67.5872V60.8717H83.7972V62.3935H77.2813V61.9563H75.5409V64.0246H77.2813V63.5874H78.4247V65.5464H74.9776V66.7403H78.4247V68.4975H77.2813V67.6315H75.5409V69.6914H77.2813V69.683H83.1414H84.8818V67.6231H83.1414V68.4975H81.9896V66.7403H85.4451V65.5464H81.9896V63.5874H83.9906V63.1754H86.8913V59.1733H85.8235H83.7972Z" fill="white"/>
<path d="M69.4286 70.5657H67.251V80.554H70.8074V80.058H80.5688V80.554H84.1252V70.5657H81.6534H69.4202H69.4286ZM80.5688 75.9886H70.8074V74.6266H80.5688V75.9886ZM80.5688 73.4243H70.8074V72.3481H80.5688V73.4243ZM70.8074 77.1993H80.5688V78.2755H70.8074V77.1993Z" fill="white"/>
<path d="M114.494 65.9248C109.861 62.3767 107.087 59.619 104.968 56.9622L103.329 56.9958L101.689 56.9622C99.5703 59.619 96.7957 62.3767 92.1631 65.9248L94.2398 66.4208C95.7111 65.4455 100.461 61.3258 103.32 58.3326C106.179 61.3173 110.937 65.4455 112.4 66.4208L114.477 65.9248H114.494Z" fill="white"/>
<path d="M65.4687 83.6562L65.0146 84.0262H69.1008L69.1428 84.001C70.7571 83.1434 71.7492 82.1344 72.5311 81.1423H68.1087C67.0661 82.3446 65.4855 83.6394 65.4687 83.6562Z" fill="white"/>
<path d="M83.023 81.1509H78.6006C79.3825 82.143 80.3746 83.1519 81.9889 84.0095L82.0309 84.0347H86.1171L85.663 83.6648C85.663 83.6648 84.0572 82.3532 83.023 81.1509Z" fill="white"/>
<path d="M39.9933 66.0423C39.3291 64.8064 37.8745 62.9063 36.6638 61.561L34.5703 62.7717C35.7642 64.2263 37.1515 66.1937 37.7232 67.4212L39.9933 66.0339V66.0423Z" fill="white"/>
<path d="M52.293 74.4583C52.1669 75.484 51.2336 76.3332 49.9893 76.6274C51.3345 76.9469 52.3098 77.9054 52.3098 79.032C52.3098 77.9054 53.2851 76.9469 54.6219 76.6274C53.3776 76.3332 52.4527 75.484 52.3266 74.4583H52.293Z" fill="white"/>
<path d="M51.336 80.9661C48.9062 80.8821 46.8547 79.3182 45.8458 77.0986C47.1406 75.5684 48.2925 74.0802 49.3182 72.6509H56.6077V70.2043H51.0081C53.3623 66.6394 54.8673 63.6715 55.6744 61.9227L52.8915 60.9054C52.3954 61.9395 50.9325 65.3867 47.5862 70.1959H47.1154V57.0378H42.8106V70.1959H33.3184V72.6425H45.7954C43.2563 75.972 39.9016 79.7891 35.4707 83.8248L39.3467 83.85C41.2552 82.0928 42.9704 80.3271 44.5174 78.5952C45.0387 81.8405 47.788 84.3712 51.1931 84.4974C55.0691 84.6403 58.3228 81.6135 58.4574 77.7376C58.491 76.7034 58.306 75.7113 57.9361 74.8117C57.5073 78.3766 54.6655 81.0754 51.3192 80.9577L51.336 80.9661Z" fill="white"/>
<path d="M20.2691 57.0542H6.09375V84.0597H10.3985V72.9952C10.7012 73.878 11.6176 74.744 12.8619 74.7188C13.5514 74.7104 14.2408 74.7188 14.9302 74.7188C15.8215 74.7188 16.7127 74.7188 17.6039 74.7188C18.2092 74.7188 18.6464 75.0971 18.7053 75.6604C18.7641 76.1817 18.4194 76.6273 17.8477 76.7618C17.7889 76.7787 17.7384 76.7955 17.688 76.8123V77.2747C17.8141 77.2747 17.9066 77.2831 18.0075 77.2747C19.3275 77.1066 20.3868 75.9883 20.2691 74.5086C20.1682 73.2895 19.0248 72.2721 17.7048 72.2637C16.6118 72.2637 15.5104 72.2637 14.4174 72.2637C13.8877 72.2637 13.358 72.2637 12.8283 72.2637C12.3911 72.2553 12.0716 72.0367 11.8867 71.65C11.7185 71.2884 11.7774 70.9437 11.996 70.6242C12.038 70.5654 12.08 70.5233 12.1221 70.4981C11.9203 70.3552 11.7269 70.2038 11.5419 70.0357C11.4831 70.0693 11.4242 70.1113 11.3738 70.145C10.8609 70.5233 10.5498 70.9773 10.3985 71.5154V66.5213H20.2691V84.0933H24.5739V57.0542H20.2691ZM10.3985 64.495V59.0889H20.2691V64.495H10.3985Z" fill="white"/>
</svg>
