<svg width="362" height="111" viewBox="0 0 362 111" fill="none" xmlns="http://www.w3.org/2000/svg">
<g clip-path="url(#clip0_1006_1984)">
<path d="M137.735 47.0462C137.735 40.4158 137.718 33.7939 137.761 27.1635C137.778 24.173 139.476 22.0967 142.435 21.4986C143.558 21.2764 144.776 21.2508 145.908 21.3961C147.907 21.6524 149.27 22.7888 149.648 24.8394C149.836 25.8818 149.991 26.9499 149.991 28.0008C150.025 34.3749 150.008 40.7576 150.008 47.1316C150.008 47.5589 150.059 47.9861 150.085 48.4048H159.459C159.485 48.157 159.528 47.9775 159.528 47.7896C159.528 41.0053 159.673 34.2126 159.485 27.4369C159.159 15.5517 146.071 12.5612 139.716 16.7223C139.124 17.1068 138.49 17.4229 137.726 17.8587V16.3891C137.726 12.1169 137.726 7.84472 137.735 3.57254C137.735 2.94026 137.632 2.58994 136.86 2.61557C134.339 2.68393 131.809 2.67538 129.287 2.70956C128.953 2.70956 128.61 2.74374 128.232 2.76083V48.4048H137.726C137.726 47.9092 137.726 47.4734 137.726 47.0462H137.735Z" fill="#2396C8"/>
<path d="M38.7482 23.3524C40.7808 23.3524 42.599 23.3695 44.4258 23.3353C44.6831 23.3353 44.9747 23.173 45.1805 23.0021C47.316 21.2505 49.846 20.5584 52.5219 20.2679C54.2028 20.0884 55.8752 20.2252 57.4275 20.9771C58.5167 21.5068 59.1943 22.3527 59.2457 23.6258C59.2972 24.8562 58.654 25.7192 57.6677 26.2062C56.7843 26.642 55.7551 26.8385 54.7774 27.0521C51.6985 27.71 48.5853 28.2483 45.5235 28.9831C43.1479 29.547 40.9438 30.5724 39.057 32.1531C36.8528 34.0072 36.0724 36.4253 36.2696 39.2278C36.5784 43.5427 38.2422 46.7297 42.882 48.1908C46.7757 49.4212 50.7723 49.6006 54.7431 48.5241C56.2783 48.1054 57.7534 47.4475 59.3058 46.8835C59.3658 47.3962 59.4173 47.9089 59.4687 48.413H69.1857C69.1857 48.0199 69.1857 47.6782 69.1857 47.3364C69.1857 42.5003 69.1943 37.6642 69.16 32.8195C69.1429 30.6236 69.2029 28.4106 68.9285 26.2404C68.3367 21.4983 65.9868 17.884 61.3384 16.1837C56.8529 14.5517 52.2474 14.3552 47.6934 15.9444C43.9026 17.2688 40.9866 19.721 38.7482 23.3353V23.3524ZM59.3401 41.5433C59.3401 41.7569 59.0485 42.1072 58.8341 42.1671C56.407 42.7737 53.9627 43.2351 51.4498 42.7395C49.0141 42.261 47.376 40.8085 47.1445 38.9458C46.8443 36.5363 47.9935 34.4344 50.3863 33.4433C52.1531 32.7085 54.0313 32.2471 55.8581 31.6404C56.9816 31.2645 58.0965 30.8543 59.3572 30.41C59.3572 34.2037 59.3658 37.8692 59.3315 41.5433H59.3401Z" fill="#2396C8"/>
<path d="M320.155 49.2245C330.06 49.3783 337.659 41.996 337.796 32.1016C337.925 22.9762 330.403 15.2692 321.398 14.9787C311.921 14.6711 303.808 22.3012 303.731 31.9991C303.662 41.1671 311.158 49.0878 320.155 49.2245ZM317.084 22.4892C317.608 21.8142 318.294 21.1819 319.031 20.7547C320.575 19.8746 322.29 20.2335 323.697 21.592C325.463 23.3095 326.295 25.4968 326.758 27.838C327.616 32.1358 327.385 36.3396 325.343 40.3042C324.855 41.2611 324.117 42.1412 323.328 42.876C321.861 44.2175 319.992 44.2175 318.397 43.0384C317.007 42.0045 316.184 40.5605 315.566 38.9969C314.606 36.5617 314.297 34.0241 314.331 31.401C314.537 28.231 315.052 25.1209 317.084 22.4977V22.4892Z" fill="#2396C8"/>
<path d="M195.781 31.7264C195.713 22.4985 187.985 14.9282 178.706 14.9966C169.083 15.0735 161.656 22.6694 161.733 32.3758C161.802 41.7233 169.495 49.2765 178.886 49.2252C188.363 49.174 195.858 41.4157 195.79 31.7264H195.781ZM176.064 42.8084C174.426 41.3986 173.594 39.5103 173.02 37.4853C171.956 33.7343 172.059 29.9492 173.105 26.2409C173.62 24.4124 174.538 22.7036 176.021 21.3792C177.711 19.8668 179.906 19.9181 181.639 21.5757C183.603 23.4469 184.375 25.8991 184.855 28.4625C185.078 29.6587 185.121 30.8976 185.207 31.7349C185.078 35.4859 184.563 38.7499 182.539 41.578C182.213 42.0309 181.81 42.4496 181.381 42.817C179.701 44.2524 177.728 44.2524 176.056 42.817L176.064 42.8084Z" fill="#2396C8"/>
<path d="M289.547 21.8915C290.353 22.2162 291.16 23.1133 291.468 23.9336C291.931 25.164 292.146 26.5567 292.154 27.8811C292.18 30.6836 292.189 33.4862 292.189 36.2887V38.8777C292.189 41.6888 292.18 44.4913 292.189 47.3024C292.189 47.3964 292.189 47.4904 292.189 47.5758V48.4901H301.666V47.6869C301.666 47.6869 301.666 47.6356 301.666 47.61C301.666 45.2261 301.666 42.8337 301.666 40.4498V30.3504H301.648C301.648 29.3507 301.648 28.3425 301.648 27.3428C301.648 25.1298 301.074 23.045 299.916 21.1567C296.022 14.8339 287.086 13.0139 280.868 17.2605C280.611 17.4313 280.345 17.6022 279.959 17.8415V15.7481H270.422V48.4901H279.959V26.702C280.019 25.1298 280.628 23.7029 281.931 22.7203C284.281 20.9602 286.923 20.832 289.547 21.9V21.8915Z" fill="#2396C8"/>
<path d="M93.8343 24.6681C94.0744 25.8643 94.2288 27.0947 94.2374 28.308C94.2802 34.6223 94.2545 40.9365 94.2545 47.2508V48.4129H103.62C103.646 48.1223 103.697 47.8746 103.697 47.6353C103.697 40.8511 103.757 34.0669 103.637 27.2827C103.603 25.6336 103.208 23.882 102.539 22.3697C99.3832 15.2095 89.8205 12.7231 83.0195 17.1747C82.7193 17.3712 82.4191 17.5592 81.9817 17.8326C81.9388 17.0636 81.9045 16.4826 81.8616 15.8674C81.5872 15.8332 81.3728 15.782 81.167 15.7905C78.6712 15.8076 76.1755 15.8162 73.6798 15.8503C72.3848 15.8674 72.3848 15.8845 72.3848 17.1234C72.3848 26.8896 72.3848 36.6644 72.3848 46.4306V48.3872H81.9217V47.003C81.9217 40.5948 81.9217 34.1865 81.9217 27.7782C81.9217 25.3773 82.6078 23.2754 84.8891 22.0792C86.8874 21.0368 89.0315 20.994 91.1499 21.6263C92.6164 22.0621 93.5341 23.1728 93.8343 24.6596V24.6681Z" fill="#2396C8"/>
<path d="M245.824 34.5366C252.805 34.5366 259.786 34.5109 266.767 34.5451C267.651 34.5451 267.908 34.2546 267.959 33.46C268.131 30.7856 267.771 28.1881 266.742 25.7102C263.971 19.0286 257.865 15.0042 250.601 15.0127C240.069 15.0213 231.947 24.7191 233.834 35.0407C236.193 48.011 251.501 53.6332 261.759 45.2854C263.251 44.0721 264.503 42.6537 265.541 40.8252C263.525 40.8252 261.673 40.8081 259.82 40.8423C259.58 40.8423 259.306 41.0644 259.126 41.261C257.668 42.7306 255.892 43.4996 253.86 43.7986C248.551 44.5762 243.868 40.0049 244.555 34.5366C244.966 34.5366 245.404 34.5366 245.832 34.5366H245.824ZM249.323 20.8741C251.064 20.0197 252.779 20.0624 254.349 21.1732C257.23 23.2153 258.26 26.24 258.748 29.6492H244.58C244.503 26.8979 246.501 22.2583 249.323 20.8741Z" fill="#2396C8"/>
<path d="M120.343 42.7651C117.993 42.3806 116.638 41.2442 116.372 38.9031C116.124 36.7328 116.115 34.5198 116.089 32.3325C116.081 31.4268 116.072 30.5211 116.072 29.6068V20.2422H122.196V15.765H116.072V6.16113H106.535V30.1537H106.561C106.561 32.4008 106.561 34.648 106.561 36.8866C106.561 38.9031 107.093 40.7999 108.07 42.5601C110.274 46.5417 113.808 48.5069 118.233 49.0538C120.558 49.3443 122.839 49.1136 124.983 48.0968C125.266 47.9601 125.626 47.6012 125.643 47.3449C125.703 45.5933 125.678 43.8417 125.678 41.9791C123.911 42.7395 122.187 43.0727 120.352 42.7737L120.343 42.7651Z" fill="#2396C8"/>
<path d="M235.335 11.0226C235.112 10.8431 234.88 10.6808 234.64 10.5355C233.234 9.66401 231.793 9.85199 230.772 11.1593C229.074 13.3295 228.534 15.9356 228.002 18.7894C230.712 18.1742 233.139 17.4565 235.24 15.9356C237.367 14.3805 237.376 12.6716 235.335 11.0226Z" fill="#2396C8"/>
<path d="M226.896 17.8417C227.136 15.5604 227.445 13.5097 226.707 11.4933C226.381 10.6047 225.772 10.0749 224.777 10.1604C223.071 10.3056 222.299 11.4762 222.933 13.0654C223.697 14.9879 225.198 16.3294 226.896 17.8417Z" fill="#2396C8"/>
<path d="M357.479 2.42773C354.984 2.42773 352.951 4.45275 352.951 6.93915C352.951 9.42556 354.984 11.4506 357.479 11.4506C359.975 11.4506 362.008 9.42556 362.008 6.93915C362.008 4.45275 359.975 2.42773 357.479 2.42773ZM357.479 10.7841C355.353 10.7841 353.62 9.05815 353.62 6.93915C353.62 4.82015 355.353 3.09419 357.479 3.09419C359.606 3.09419 361.339 4.82015 361.339 6.93915C361.339 9.05815 359.606 10.7841 357.479 10.7841Z" fill="#2396C8"/>
<path d="M359.273 5.99064C359.273 5.26437 358.741 4.74316 357.738 4.74316H355.816V9.39129H356.52V7.38337H357.446C358.295 7.38337 358.475 7.66533 358.475 8.29761V8.3916C358.475 8.83591 358.475 9.19477 358.561 9.39984H359.247C359.17 9.20332 359.178 8.80173 359.178 8.48559V8.28053C359.178 7.46881 358.835 7.19539 358.475 7.09286C358.912 6.9647 359.273 6.60583 359.273 5.99918V5.99064ZM357.532 6.8109H356.52V5.31564H357.592C358.218 5.31564 358.535 5.58051 358.535 6.05899C358.535 6.55457 358.235 6.8109 357.532 6.8109Z" fill="#2396C8"/>
<path d="M340.182 48.4389H340.765C340.868 48.4559 340.971 48.4645 341.108 48.4645C342.395 48.4474 343.681 48.4389 344.968 48.4389H345.028C346.314 48.4389 347.592 48.4389 348.878 48.4389C348.887 48.4389 348.904 48.4389 348.913 48.4389H349.65V48.3705C349.65 48.3705 349.667 48.3705 349.676 48.3705V2.76074H340.173V3.43575C340.173 3.51265 340.173 3.581 340.173 3.6579C340.173 18.2687 340.173 32.8796 340.156 47.4904C340.156 47.6271 340.165 47.7468 340.182 47.8493V48.4474V48.4389Z" fill="#2396C8"/>
<path d="M259.366 73.6963V74.3457H257.385V76.1912H259.366V77.0371H261.553V76.1912H263.954V74.3457H261.553V73.6963H259.366Z" fill="#2396C8"/>
<path d="M252.873 73.6963V74.3457H250.283V76.1912H252.873V76.627H255.06V76.1912H256.913V74.3457H255.06V73.6963H252.873Z" fill="#2396C8"/>
<path d="M251.621 81.7702C251.775 81.6164 251.921 81.4711 252.075 81.3002H255.154V81.6762H252.23V87.6316H254.065V85.9825H255.154V87.5974H257.049V85.9825H258.25V86.1962C258.25 86.3329 258.207 86.3585 258.087 86.3585C257.967 86.3585 257.633 86.3756 257.358 86.3414C257.538 86.6917 257.77 87.2215 257.873 87.6231C258.542 87.6231 259.099 87.606 259.528 87.4094C259.571 87.6401 259.605 87.8452 259.622 88.0332C260.351 88.0503 261.037 88.0503 261.501 87.9392C262.032 87.8367 262.393 87.6487 262.778 87.0933C263.267 86.4098 263.405 84.248 263.533 78.4208C263.55 78.1645 263.567 77.498 263.567 77.498H254.408L254.588 77.0622L252.358 76.7119C251.929 77.985 251.132 79.3863 249.828 80.4629C250.377 80.7192 251.209 81.3088 251.638 81.7616L251.621 81.7702ZM255.154 84.8803H254.065V84.4104H255.154V84.8803ZM255.154 83.3082H254.065V82.8382H255.154V83.3082ZM258.25 84.8803H257.049V84.4104H258.25V84.8803ZM258.25 83.3082H257.049V82.8382H258.25V83.3082ZM261.389 79.2838C261.286 83.7097 261.149 85.4186 260.874 85.8117C260.72 86.0253 260.583 86.0851 260.36 86.0851H260.12V81.6762H257.058V81.3002H260.334V80.104H259.442L259.777 79.8904C259.657 79.711 259.442 79.4803 259.219 79.2838H261.406H261.389ZM253.533 79.2838H258.156L257.504 79.6768C257.641 79.7964 257.804 79.9502 257.941 80.104H257.049V79.4376H255.154V80.104H253.019C253.199 79.8306 253.37 79.5572 253.533 79.2838Z" fill="#2396C8"/>
<path d="M300.197 76.2938H302.05V77.0969H304.237V76.2938H306.767V74.4482H304.237V73.6963H302.05V74.4482H300.197V76.2938Z" fill="#2396C8"/>
<path d="M294.794 84.0179V86.829H301.938C302.093 87.2391 302.213 87.6919 302.23 88.0252C302.985 88.0423 303.731 88.0594 304.237 87.9654C304.769 87.8628 305.189 87.6748 305.575 87.1195C306.012 86.4359 306.201 84.4622 306.33 78.4555C306.33 78.2163 306.347 77.5327 306.347 77.5327H296.913L297.093 77.1397L296.089 76.9602H297.968V76.2938H299.726V74.4482H297.968V73.6963H295.781V74.4482H293.096V76.2938H295.781V76.9004L295.009 76.7637C294.537 77.8659 293.722 79.1818 292.564 80.19C293.002 80.489 293.671 81.2068 293.98 81.6596C294.751 80.9163 295.378 80.1302 295.918 79.3185H296.278C295.883 80.0704 295.326 80.8735 294.743 81.4204C295.094 81.5742 295.635 81.8305 296.046 82.0698H293.971V83.6761H297.865V85.3081H296.698V84.0264H294.786L294.794 84.0179ZM304.125 79.3185C304.022 83.9581 303.885 85.7695 303.594 86.1796C303.456 86.3932 303.319 86.453 303.079 86.453H302.865V84.0179H300.849V85.2995H299.829V83.6676H303.542V82.0612H299.829V81.4375H303.028V79.9251H297.942C298.002 79.8226 298.045 79.7115 298.105 79.609L297.058 79.3099H304.108L304.125 79.3185ZM296.501 82.0698C296.655 81.8903 296.818 81.6767 296.99 81.446H297.882V82.0698H296.501Z" fill="#2396C8"/>
<path d="M347.076 78.4719C348.157 77.6089 349.109 76.5237 349.863 75.5582L348.388 74.4731L347.891 74.5756H342.325V75.0285L340.652 74.5927C340.515 75.3788 340.258 76.4041 339.983 77.2415V73.7041H337.968V77.1817C337.805 76.3614 337.556 75.413 337.316 74.6269L335.678 75.0541C335.969 76.1307 336.287 77.5491 336.39 78.4719L337.968 78.0361V78.7453H335.832V80.7874H337.968V81.676L336.844 81.3C336.664 82.3766 336.15 83.6924 335.566 84.4614C335.867 85.0937 336.278 86.0507 336.433 86.7257C337.144 85.9396 337.642 84.5811 337.968 83.2311V88.0672H339.983V83.2311C340.395 84.0513 340.815 84.9826 341.072 85.6662L342.548 84.0513C342.256 83.6156 340.952 81.7102 340.575 81.2744L339.983 81.7102V80.7874H341.716V78.7453H339.983V77.9592L341.227 78.3351C341.544 77.626 341.939 76.6006 342.316 75.6009V76.5665H346.227C345.789 77.1133 345.283 77.6431 344.769 78.019V80.0867H341.87V82.1716H344.769V85.6747C344.769 85.9054 344.675 85.9652 344.417 85.9738C344.16 85.9738 343.251 85.9738 342.565 85.9311C342.865 86.5206 343.191 87.4263 343.294 88.0501C344.503 88.0501 345.429 88.0073 346.133 87.6912C346.844 87.358 347.059 86.8026 347.059 85.726V82.1716H349.94V80.0867H347.059V78.4804L347.076 78.4719Z" fill="#2396C8"/>
<path d="M260.018 106.626C260.789 107.626 261.896 109.001 262.385 109.83L264.28 108.753C263.705 107.933 262.539 106.626 261.776 105.703L260.018 106.626Z" fill="#2396C8"/>
<path d="M254.864 105.755C254.315 106.737 253.389 107.882 252.557 108.591C253.088 108.865 253.963 109.42 254.409 109.77C255.198 108.95 256.244 107.592 256.939 106.43L254.864 105.746V105.755Z" fill="#2396C8"/>
<path d="M263.106 99.2859H259.255C259.393 99.1065 259.547 98.91 259.684 98.6964L257.686 98.4657H264.075V96.4834H251.091V100.944C251.091 103.268 250.996 106.608 249.787 108.847C250.336 109.044 251.305 109.59 251.725 109.924C253.046 107.471 253.261 103.532 253.261 100.944V98.4657H256.991C256.897 98.722 256.777 98.9954 256.631 99.2859H254.067V105.481H257.497V108.138C257.497 108.3 257.437 108.352 257.223 108.352C257.026 108.352 256.297 108.351 255.765 108.334C256.005 108.881 256.279 109.676 256.357 110.265C257.377 110.265 258.192 110.248 258.827 109.949C259.478 109.659 259.633 109.129 259.633 108.198V105.481H263.123V99.2859H263.106ZM260.825 103.857H256.202V103.114H260.825V103.857ZM260.825 101.627H256.202V100.901H260.825V101.627Z" fill="#2396C8"/>
<path d="M278.775 108.061H277.274C276.682 108.061 276.605 107.984 276.605 107.292V104.66H281.082V102.601H276.605V100.636H274.418V107.283C274.418 109.428 274.95 110.077 276.948 110.077H278.981C280.696 110.077 281.27 109.291 281.502 106.736C280.91 106.6 280.001 106.241 279.529 105.873C279.435 107.702 279.332 108.052 278.775 108.052V108.061Z" fill="#2396C8"/>
<path d="M275.721 95.9111V97.133H274.494V99.1922H275.721V100.397H277.933V99.1922H281.124V97.133H277.933V95.9111H275.721Z" fill="#2396C8"/>
<path d="M272.874 95.9111H270.687V97.133H267.393V99.2007H270.687V100.277C269.863 102.029 268.38 103.772 266.836 104.797C267.351 105.156 268.251 105.934 268.646 106.352C268.98 106.079 269.332 105.763 269.658 105.43V110.266H271.845V102.755C272.239 102.166 272.591 101.559 272.891 100.961L271.09 100.405H272.882V99.2093H274.031V97.1415H272.882V95.9197L272.874 95.9111Z" fill="#2396C8"/>
<path d="M292.454 100.175H296.717V98.6453H292.454V98.1668H297.403V96.5434H292.454V95.9111H290.207V96.5434H285.508V98.1668H290.207V98.6453H286.134V100.175H290.207V100.653H284.633V102.277H298.158V100.653H292.454V100.175Z" fill="#2396C8"/>
<path d="M286.475 105.421C286.475 106.541 286.415 107.899 285.506 108.865C285.96 109.155 286.869 110.01 287.187 110.437C287.821 109.788 288.19 108.908 288.405 107.985H294.125V108.224C294.125 108.455 294.031 108.515 293.765 108.523C293.533 108.523 292.504 108.523 291.852 108.48C292.11 108.967 292.401 109.694 292.504 110.215C293.731 110.215 294.708 110.198 295.42 109.941C296.132 109.685 296.372 109.232 296.372 108.25V102.781H286.484V105.413L286.475 105.421ZM288.662 104.328H294.125V104.755H288.662V104.328ZM288.645 106.148H294.125V106.601H288.619C288.636 106.447 288.653 106.302 288.653 106.148H288.645Z" fill="#2396C8"/>
<path d="M310.344 107.984C311.51 108.616 313.131 109.582 313.877 110.206L315.593 108.932C314.709 108.3 313.062 107.403 311.939 106.848L310.344 107.984Z" fill="#2396C8"/>
<path d="M312.875 103.857L311.22 104.805C311.357 104.908 311.511 105.036 311.648 105.156L308.355 105.275C310.156 104.703 311.949 103.994 313.587 103.173L312.206 101.994H315.645V100.362H309.573V100.003H314.136V98.4739H309.573V98.1151H314.865V96.56H309.573V95.8936H307.36V96.56H302.154V98.1151H307.36V98.4739H302.935V100.003H307.36V100.362H301.425V101.994H305.791C305.105 102.293 304.504 102.507 304.213 102.618C303.741 102.78 303.381 102.891 302.995 102.951C303.175 103.421 303.432 104.284 303.527 104.626C303.878 104.506 304.35 104.429 306.528 104.293C305.619 104.626 304.856 104.882 304.47 105.002C303.424 105.335 302.815 105.489 302.137 105.557C302.3 106.053 302.549 106.95 302.609 107.292C302.969 107.172 303.381 107.078 304.641 106.993C303.835 107.642 302.472 108.232 301.211 108.608C301.683 108.958 302.472 109.71 302.849 110.12C303.741 109.744 304.779 109.197 305.654 108.582C305.911 109.095 306.168 109.761 306.262 110.257C307.369 110.257 308.252 110.222 308.981 109.94C309.727 109.641 309.925 109.095 309.925 108.146V106.677L313.175 106.514C313.509 106.83 313.784 107.121 313.981 107.36L315.739 106.283C315.105 105.574 313.801 104.549 312.875 103.848V103.857ZM308.535 102.003H311.854C311.357 102.293 310.791 102.558 310.216 102.814L307.472 102.917C307.969 102.72 308.441 102.507 308.878 102.293L308.527 101.994L308.535 102.003ZM307.806 108.078C307.806 108.24 307.729 108.291 307.472 108.291C307.274 108.309 306.683 108.291 306.091 108.274C306.348 108.095 306.58 107.898 306.786 107.702L304.933 106.976C305.619 106.933 306.537 106.873 307.798 106.813V108.086L307.806 108.078Z" fill="#2396C8"/>
<path d="M329.864 104.387L328.381 103.695C327.497 104.345 325.73 104.994 324.393 105.31C324.787 105.609 325.199 106.054 325.456 106.37C326.931 105.96 328.689 105.267 329.873 104.387H329.864Z" fill="#2396C8"/>
<path d="M329.212 99.9181L330.378 99.0893C330.104 98.7902 329.606 98.2861 329.229 97.9443L328.105 98.6877C328.466 99.0636 328.972 99.5934 329.212 99.9266V99.9181Z" fill="#2396C8"/>
<path d="M325.173 108.155C327.386 107.685 329.727 106.873 331.254 105.677L329.676 104.934C328.51 105.822 326.16 106.566 324.17 106.916C324.547 107.266 324.942 107.796 325.173 108.155Z" fill="#2396C8"/>
<path d="M324.838 97.9531L323.715 98.6965C324.075 99.0724 324.581 99.6022 324.821 99.9354L325.988 99.1066C325.713 98.8076 325.216 98.3034 324.838 97.9617V97.9531Z" fill="#2396C8"/>
<path d="M332.926 103.302C332.472 103.242 331.443 103.063 330.01 102.499C330.696 102.499 331.228 102.499 331.631 102.285C332.06 102.055 332.146 101.713 332.146 101.029V96.4666H328.141V97.9362H330.465V101.004C330.465 101.123 330.431 101.157 330.328 101.157H329.719C329.873 101.568 329.976 102.08 329.993 102.499C329.839 102.439 329.693 102.379 329.539 102.302C329.616 102.243 329.702 102.166 329.779 102.089L328.827 101.619C329.376 101.345 329.916 101.046 330.448 100.739L330.173 99.6536C329.35 99.9697 328.612 100.26 328.038 100.44L328.672 101.542L328.244 101.345C328.081 101.499 327.883 101.636 327.669 101.773C327.729 101.61 327.746 101.414 327.746 101.149V96.4666H323.938V97.9362H326.151V100.67L325.877 99.6451C324.993 99.9954 324.204 100.329 323.587 100.525L324.298 101.747C324.907 101.431 325.525 101.081 326.151 100.747V101.14C326.151 101.243 326.108 101.294 325.988 101.294C325.885 101.294 325.576 101.294 325.302 101.277C325.439 101.627 325.542 102.063 325.559 102.422C325.911 102.422 326.228 102.422 326.503 102.405C325.594 102.815 324.53 103.157 323.544 103.405V96.4238H319.127V101.892C319.127 104.088 319.084 107.104 318.338 109.163C318.715 109.36 319.487 109.992 319.796 110.343C320.422 108.83 320.688 106.72 320.816 104.755L321.245 105.84C321.425 105.626 321.605 105.43 321.794 105.216V108.13C321.794 108.292 321.751 108.36 321.597 108.36C321.443 108.36 320.988 108.377 320.593 108.343C320.834 108.83 321.048 109.685 321.082 110.189C321.931 110.189 322.523 110.146 322.978 109.83C323.338 109.591 323.492 109.206 323.535 108.668C323.887 109.095 324.264 109.744 324.444 110.206C327.943 109.71 330.894 108.847 332.738 107.002L330.919 106.233C329.504 107.608 326.623 108.335 323.535 108.634C323.552 108.48 323.552 108.335 323.552 108.164V103.951C323.827 104.268 324.084 104.644 324.247 104.934C325.611 104.524 327.034 103.951 328.269 103.208C330.062 104.285 331.211 104.678 331.726 104.84C331.966 104.327 332.497 103.644 332.926 103.302ZM321.794 103.165C321.46 103.439 321.142 103.695 320.868 103.892C320.885 103.182 320.902 102.499 320.902 101.892V101.482C321.065 101.721 321.202 101.935 321.297 102.114L321.794 101.756V103.157V103.165ZM321.794 100.329C321.631 100.132 321.46 99.9356 321.305 99.7732L320.894 100.03V98.4147H321.786V100.337L321.794 100.329Z" fill="#2396C8"/>
<path d="M348.947 107.728L348.14 107.198H349.641V106.156H345.868V105.84H348.749V104.917H345.868V104.626H349.084V103.661H345.868V103.362H347.283V101.533H342.917V103.362H343.724V103.661H341.751V103.362H342.437V101.533H338.132V103.362H339.607V103.661H336.742V104.626H339.607V104.917H337.017V105.84H339.607V106.156H335.936V107.198H339.761C338.518 107.514 337.017 107.711 335.533 107.805C335.833 108.104 336.219 108.634 336.399 109.001C337.283 108.924 338.14 108.787 338.981 108.625C338.878 108.924 338.646 109.095 338.449 109.18C338.664 109.394 338.947 110.009 339.024 110.377C339.384 110.197 339.967 110.06 343.509 109.531C343.475 109.215 343.475 108.608 343.509 108.198L341.005 108.514V108.061C341.691 107.822 342.326 107.531 342.84 107.198C344.101 108.804 346.134 109.616 348.998 109.915C349.195 109.488 349.59 108.873 349.924 108.54C349.135 108.497 348.389 108.42 347.712 108.3C348.149 108.138 348.578 107.941 348.972 107.728H348.947ZM340.679 102.61H339.753V102.277H340.679V102.61ZM343.715 106.156H341.742V105.84H343.715V106.156ZM343.715 104.917H341.742V104.626H343.715V104.917ZM344.564 102.277H345.533V102.61H344.564V102.277ZM345.748 107.779C345.353 107.617 344.993 107.42 344.684 107.207H347.008C346.614 107.403 346.176 107.6 345.748 107.779Z" fill="#2396C8"/>
<path d="M335.928 100.277V102.242H337.84V101.217H347.609V102.242H349.616V100.277H343.835V99.9609H348.261V97.9786H343.835V97.6625H349.187V96.5261H343.835V95.9023H341.648V96.5261H336.339V97.6625H341.648V97.9786H337.6V99.9609H341.648V100.277H335.928ZM343.835 98.816H346.159V99.1492H343.835V98.816ZM339.59 99.1492V98.816H341.657V99.1492H339.59Z" fill="#2396C8"/>
<path d="M43.9528 73.0294C23.6525 67.0141 12.0916 45.7472 18.1293 25.5227C21.7571 13.3898 30.8995 4.39256 42.0145 0.436523C23.8412 1.009 7.28022 13.0053 1.8085 31.3158C-1.69066 43.0301 0.033187 55.052 5.63356 64.9122C11.8085 63.1435 18.6868 65.4249 22.4604 71.03C23.0522 71.91 23.541 72.8243 23.9184 73.7642C28.4639 73.0464 33.2237 74.9433 35.9596 79.0018C36.4056 79.6598 36.7744 80.3519 37.0745 81.0525C37.3318 81.0354 37.5891 81.0183 37.8464 81.0183C41.6286 81.0183 44.9476 82.9664 46.8687 85.8971C48.7899 82.9579 52.1089 81.0183 55.8911 81.0183C58.0609 81.0183 60.0849 81.6591 61.7745 82.7699C70.2565 78.8053 77.4264 72.1493 81.9032 63.528C72.272 73.0379 57.8637 77.1563 43.9528 73.0294Z" fill="#2396C8"/>
<path d="M27.1273 86.1794H27.0587C26.7757 88.4693 24.7002 90.3576 21.9043 91.0156C24.906 91.7247 27.093 93.8608 27.093 96.3814C27.093 93.8608 29.2714 91.7333 32.2731 91.0156C29.4858 90.3491 27.4103 88.4608 27.1273 86.1709V86.1794Z" fill="#2396C8"/>
<path d="M214.949 85.1797V94.7579H219.846V93.6386H226.665V94.7579H231.562V85.1797H214.958H214.949ZM226.665 86.8287V91.9981H219.846V86.8287H226.665Z" fill="#2396C8"/>
<path d="M236.552 96.6631H231.655H215.488H210.591V105.566H207.855V108.001H239.331V105.566H236.552V96.6631ZM231.663 105.566H229.537V98.2865H231.663V105.566ZM224.639 105.566H222.512V98.2865H224.639V105.566ZM215.488 98.2951H217.615V105.575H215.488V98.2951Z" fill="#2396C8"/>
<path d="M189.486 70.9619H181.029V72.9357H189.486V70.9619Z" fill="#2396C8"/>
<path d="M228.346 80.5742H218.166V83.0094H228.346V80.5742Z" fill="#2396C8"/>
<path d="M196.399 73.8662H174.117H173.285H169.863V79.3431H171.853V79.9327H175.541V82.59H172.582V84.222H175.541V86.6315H171.853V88.2634H184.134V86.6315H180.438V84.222H183.405V82.59H180.438V79.9327H184.134V78.3007H174.117V76.1903H196.399V78.2751H187.445V77.677H185.052V80.5052H187.445V79.9071H189.023V82.59H184.272V84.222H189.023V86.64H187.445V85.4524H185.052V88.272H187.445V88.2634H195.498H197.891V85.4353H195.498V86.64H193.911V84.222H198.663V82.59H193.911V79.9071H196.664V79.3431H200.652V73.8662H199.194H196.399Z" fill="#2396C8"/>
<path d="M176.639 89.46H173.654V103.139H178.551V102.456H191.965V103.139H196.862V89.46H193.457H176.647H176.639ZM191.965 96.9021H178.551V95.0309H191.965V96.9021ZM191.965 93.3733H178.551V91.9036H191.965V93.3733ZM178.551 98.5512H191.965V100.021H178.551V98.5512Z" fill="#2396C8"/>
<path d="M225.832 70.5775L225.789 70.5177H225.798C230.077 69.5266 233.371 65.6218 232.959 60.555C232.599 56.1034 228.516 52.3609 223.774 52.3524C219.854 52.3524 215.943 52.3524 212.024 52.3524C210.129 52.3524 208.233 52.378 206.338 52.3268C204.777 52.284 203.645 51.4894 202.985 50.0967C202.367 48.7894 202.59 47.5248 203.388 46.3543C203.782 45.7818 204.134 45.6195 204.828 46.0979C209.271 49.1568 214.125 50.0112 219.34 48.5587C227.607 46.2432 232.719 38.109 231.441 29.3681C230.137 20.4136 221.51 13.8857 212.564 15.0819C200.034 16.7566 193.525 30.6839 200.3 41.3216C200.866 42.2103 201.518 43.0476 202.161 43.9362C201.801 44.1755 201.484 44.372 201.184 44.6027C198.25 46.7986 196.998 49.6524 197.316 53.3521C197.633 57.0433 201.278 61.418 206.492 61.3325C208.954 61.2898 211.424 61.3325 213.885 61.3325C217.076 61.3325 220.266 61.324 223.456 61.3325C225.626 61.3411 227.17 62.7167 227.384 64.7588C227.59 66.6727 226.347 68.3047 224.323 68.7832C224.117 68.8345 223.919 68.9114 223.748 68.9712C223.748 68.9712 221.192 69.3386 220.48 70.7655H220.506C217.307 74.7301 213.336 78.4383 207.65 82.7788L206.955 83.3086L210.841 84.2399L210.995 84.1374C212.933 82.8557 219.245 77.4215 223.251 73.3117C227.256 77.4215 233.568 82.8557 235.506 84.1374L235.661 84.2399L239.546 83.3086L238.851 82.7788C233.079 78.37 229.057 74.6019 225.832 70.5775ZM210.446 23.1563C210.789 22.601 211.209 22.0712 211.681 21.6184C213.533 19.8241 215.798 19.8497 217.633 21.6782C219.323 23.3614 220.129 25.489 220.6 27.7703C221.492 32.1365 221.261 36.4086 219.142 40.4074C218.576 41.4754 217.667 42.458 216.698 43.2014C215.292 44.278 213.645 44.1156 212.238 43.022C210.146 41.4071 209.254 39.0916 208.714 36.6393C208.379 35.1526 208.285 33.6061 208.079 32.0852C208.242 28.9152 208.756 25.882 210.455 23.1563H210.446Z" fill="#2396C8"/>
<path d="M171.2 107.404L170.574 107.916H176.192L176.252 107.882C178.473 106.703 179.828 105.327 180.909 103.969H174.828C173.396 105.609 171.217 107.386 171.192 107.412L171.2 107.404Z" fill="#2396C8"/>
<path d="M195.342 103.96H189.262C190.342 105.318 191.706 106.702 193.919 107.873L193.979 107.907H199.596L198.97 107.395C198.97 107.395 196.766 105.6 195.334 103.951L195.342 103.96Z" fill="#2396C8"/>
<path d="M132.548 85.4103L132.814 85.9828L136.93 83.4707L136.682 83.0008C135.687 81.1467 133.569 78.4637 132.025 76.7549L131.716 76.4131L127.865 78.6346L128.285 79.1473C129.838 81.0356 131.75 83.7014 132.548 85.4017V85.4103Z" fill="#2396C8"/>
<path d="M153.096 94.792C152.925 96.2018 151.647 97.3638 149.932 97.7654C151.776 98.2012 153.122 99.5085 153.122 101.064C153.122 99.517 154.46 98.2097 156.304 97.7654C154.589 97.3553 153.319 96.1933 153.148 94.792H153.105H153.096Z" fill="#2396C8"/>
<path d="M151.774 103.712C148.584 103.601 145.865 101.645 144.416 98.825C146.32 96.595 148.009 94.4162 149.51 92.3313H159.021V88.982H151.826C154.81 84.4534 156.834 80.5487 158.104 77.8145L158.292 77.4129L153.704 75.7468L153.541 76.08C153.473 76.2252 153.387 76.4047 153.292 76.6183C151.354 80.7965 148.953 84.9234 146.105 88.982H145.968V70.9619H140.051V88.982H127.006V92.3313H143.653C139.716 97.458 135.05 102.473 129.699 107.344L128.927 108.044L135.462 108.087L135.582 107.976C138.129 105.643 140.436 103.294 142.521 100.987C143.43 105.191 147.092 108.403 151.594 108.566C156.92 108.754 161.389 104.61 161.586 99.3121C161.637 97.8937 161.371 96.5352 160.865 95.3048C160.282 100.184 156.371 103.883 151.774 103.721V103.712Z" fill="#2396C8"/>
<path d="M109.064 70.9619H89.5703V107.95H95.488V92.7927C95.8997 93.9975 97.1604 95.1852 98.8757 95.1595C99.8191 95.1424 100.771 95.1595 101.714 95.1595C102.941 95.1595 104.167 95.1595 105.394 95.1595C106.226 95.1595 106.817 95.6807 106.903 96.4412C106.98 97.1589 106.509 97.7655 105.728 97.9535C105.651 97.9706 105.574 98.0048 105.505 98.0219V98.6627C105.677 98.6627 105.814 98.6798 105.943 98.6627C107.752 98.432 109.219 96.9026 109.047 94.8776C108.91 93.2114 107.341 91.8101 105.514 91.8016C104.004 91.8016 102.503 91.8016 100.994 91.8016C100.265 91.8016 99.5361 91.8101 98.8071 91.793C98.2067 91.776 97.7693 91.4769 97.5206 90.9557C97.2805 90.4687 97.3662 89.9902 97.675 89.5544C97.735 89.4775 97.7865 89.4177 97.8465 89.3835C97.5635 89.187 97.2976 88.982 97.0575 88.7427C96.9803 88.794 96.9031 88.8452 96.8259 88.8965C96.1484 89.3921 95.7024 89.9816 95.488 90.6737V83.9322H109.064V108.002H114.982V70.9619H109.064ZM95.4966 81.1553V73.7474H109.073V81.1553H95.4966Z" fill="#2396C8"/>
</g>
<defs>
<clipPath id="clip0_1006_1984">
<rect width="362" height="110" fill="white" transform="translate(0 0.436523)"/>
</clipPath>
</defs>
</svg>
