<svg width="231" height="98" viewBox="0 0 231 98" fill="none" xmlns="http://www.w3.org/2000/svg">
<g clip-path="url(#clip0_816_19995)">
<path d="M81.2953 6.85739C78.169 6.23737 76.4496 6.48538 74.1111 8.47563C73.0482 9.37466 72.079 10.3729 71.1787 11.4393C70.1345 12.6732 68.7527 12.4933 68.0086 11.0549C65.6077 6.41097 68.7214 0.69441 73.9548 0.148795C74.5425 0.0867928 75.1365 0.0495918 75.7243 0.0433916C82.1456 0.0371914 86.7538 0.0371914 93.1814 0.0433916C91.3056 6.24357 89.261 13.0452 85.9284 18.8547C84.3965 21.527 82.0518 22.9158 78.8943 22.8166C75.9056 22.7236 73.836 21.2418 72.3166 18.7431C71.6039 17.5713 71.6476 16.5297 72.0978 15.3392C74.0799 10.0319 82.6646 6.67138 81.3078 6.86359L81.2953 6.85739Z" fill="#2690C1"/>
<path d="M53.1591 97.9999L0 0.105347H27.5112L65.6641 73.8193L53.1591 97.9999Z" fill="#2690C1"/>
<path d="M75.6486 57.8353L65.582 40.6608L70.1964 40.6484L77.2493 53.0612L83.9145 40.6174H87.9411L78.4435 57.8291H75.6486V57.8353Z" fill="#2690C1"/>
<path d="M96.6755 40.5864H92.6426L92.6801 57.7919H96.713L96.6755 40.5864Z" fill="#2690C1"/>
<path d="M111.444 57.7546L101.377 40.5801L105.991 40.5677L113.044 52.9805L119.709 40.5367H123.736L114.238 57.7484H111.444V57.7546Z" fill="#2690C1"/>
<path d="M128.475 57.7175L128.438 40.5183L146.201 40.4749V43.3951L132.483 43.4261V47.2764L140.499 47.2578V50.1781L132.495 50.1967L132.508 54.4625L146.395 54.4315V57.6741L128.475 57.7175Z" fill="#2690C1"/>
<path d="M159.713 57.6431L149.646 40.4686L154.261 40.4562L161.314 52.8689L167.979 40.4252H172.006L162.508 57.6369H159.713V57.6431Z" fill="#2690C1"/>
<path d="M180.74 40.3943H176.707L176.745 57.5998H180.777L180.74 40.3943Z" fill="#2690C1"/>
<path d="M197.698 43.4261L197.729 57.5563L193.684 57.5687L193.653 43.4385L185.693 43.4571V40.388L205.676 40.3446V43.4137L197.692 43.4323L197.698 43.4261Z" fill="#2690C1"/>
<path d="M218.932 43.6431L222.696 50.6307L215.093 50.6493L218.932 43.6493V43.6431ZM217.125 40.3136L207.346 57.5377H211.366L213.379 53.7618L224.378 53.737L226.472 57.4943L230.999 57.4819L221.014 40.3074H217.125V40.3136Z" fill="#2690C1"/>
</g>
<defs>
<clipPath id="clip0_816_19995">
<rect width="231" height="98" fill="white"/>
</clipPath>
</defs>
</svg>
