<svg width="29" height="35" viewBox="0 0 29 35" fill="none" xmlns="http://www.w3.org/2000/svg">
<path d="M15.5633 25.7985C8.37578 23.6608 4.28252 16.1028 6.42024 8.9153C7.7047 4.6034 10.9417 1.40592 14.877 0C8.44258 0.203449 2.57901 4.46676 0.641698 10.9741C-0.597212 15.1372 0.0131332 19.4096 1.996 22.9138C4.18231 22.2852 6.61762 23.096 7.9537 25.0879C8.16322 25.4007 8.3363 25.7256 8.46991 26.0596C10.0793 25.8046 11.7646 26.4787 12.7332 27.921C12.8911 28.1549 13.0217 28.4008 13.128 28.6498C13.2191 28.6437 13.3102 28.6377 13.4013 28.6377C14.7404 28.6377 15.9155 29.33 16.5957 30.3715C17.2759 29.327 18.451 28.6377 19.7902 28.6377C20.5584 28.6377 21.275 28.8654 21.8732 29.2602C24.8764 27.8512 27.4149 25.4857 29 22.4219C25.59 25.8015 20.4886 27.2651 15.5633 25.7985Z" fill="#2690C1"/>
<path d="M9.60707 30.4717H9.58278C9.48257 31.2855 8.74773 31.9566 7.75781 32.1904C8.8206 32.4424 9.59492 33.2016 9.59492 34.0974C9.59492 33.2016 10.3662 32.4455 11.429 32.1904C10.4421 31.9536 9.70727 31.2825 9.60707 30.4687V30.4717Z" fill="#2690C1"/>
</svg>
