<svg width="16" height="19" viewBox="0 0 16 19" fill="none" xmlns="http://www.w3.org/2000/svg">
<path fill-rule="evenodd" clip-rule="evenodd" d="M10.9774 13.6874C10.8733 14.5472 10.3523 15.2358 9.54532 15.5805C9.09592 15.7726 8.49251 15.8763 8.0149 15.8437C7.26983 15.8153 6.56984 15.6341 5.92462 15.3028C5.69411 15.1844 5.35049 14.948 5.08664 14.7266C5.01981 14.6707 5.01187 14.6348 5.05609 14.5721C5.07997 14.5361 5.12399 14.4711 5.2213 14.3286C5.36243 14.1218 5.38004 14.0959 5.39591 14.0716C5.44107 14.0023 5.51443 13.9963 5.5868 14.0532C5.5944 14.0591 5.5944 14.0591 5.60014 14.0636C5.61201 14.0728 5.61201 14.0728 5.64002 14.0946C5.66837 14.1167 5.68518 14.1297 5.69198 14.1348C6.38783 14.6798 7.19826 14.9941 8.01643 15.0255C9.15474 15.01 9.97332 14.4982 10.12 13.7123C10.2813 12.8474 9.60228 12.1002 8.27388 11.6838C7.85843 11.5535 6.80828 11.1332 6.61466 11.0196C5.70539 10.4861 5.28026 9.78731 5.34069 8.92418C5.43326 7.72773 6.54396 6.83538 7.9474 6.82941C8.57502 6.82812 9.2013 6.95856 9.80297 7.21208C10.016 7.30187 10.3964 7.50886 10.5277 7.60691C10.6033 7.66245 10.6183 7.72719 10.5749 7.79704C10.5507 7.83754 10.5107 7.90174 10.4263 8.03559L10.4254 8.03706C10.3143 8.21336 10.3109 8.21886 10.2854 8.2601C10.2414 8.32712 10.1896 8.33337 10.1102 8.283C9.46642 7.8505 8.75269 7.6329 7.96774 7.61719C6.9905 7.63653 6.25803 8.21813 6.20988 9.01041C6.19707 9.72599 6.73378 10.2484 7.8931 10.6467C10.2464 11.403 11.1469 12.2895 10.9774 13.6874ZM8.07119 1.33415C9.60328 1.33415 10.8521 2.78809 10.9105 4.60811H5.2319C5.29033 2.78809 6.53916 1.33415 8.07119 1.33415ZM16.0002 4.95029C16.0002 4.7613 15.848 4.60811 15.6604 4.60811H11.9796C11.8893 2.20501 10.174 0.288818 8.07119 0.288818C5.96844 0.288818 4.25313 2.20501 4.16282 4.60811L0.47682 4.60818C0.292003 4.61153 0.143203 4.76345 0.143203 4.95029C0.143203 4.95922 0.143537 4.96809 0.144202 4.97681H0.141602L0.66704 16.5595C0.667106 16.5917 0.668305 16.6242 0.670708 16.6569C0.671239 16.6643 0.671843 16.6716 0.672443 16.6789L0.673578 16.7034L0.674843 16.7047C0.75468 17.5107 1.33961 18.1598 2.13497 18.1898L2.13677 18.1915H13.8291C13.8346 18.1916 13.8401 18.1916 13.8457 18.1916C13.8512 18.1916 13.8567 18.1916 13.8623 18.1915H13.8872L13.8877 18.1911C14.6969 18.169 15.3524 17.5107 15.4217 16.6948L15.4221 16.6944L15.4227 16.6834C15.4233 16.6748 15.4239 16.6663 15.4245 16.6577C15.4258 16.6372 15.4266 16.6167 15.427 16.5963L16.0003 4.96794H15.9998C16.0002 4.9621 16.0002 4.9562 16.0002 4.95029Z" fill="white"/>
</svg>
