<svg width="199" height="86" viewBox="0 0 199 86" fill="none" xmlns="http://www.w3.org/2000/svg">
<path d="M70.0341 6.68828C67.3409 6.15415 65.8596 6.3678 63.8451 8.08235C62.9294 8.85684 62.0945 9.71678 61.3189 10.6355C60.4194 11.6984 59.229 11.5435 58.588 10.3043C56.5196 6.30371 59.202 1.37905 63.7104 0.909016C64.2168 0.855603 64.7285 0.823556 65.2348 0.818214C70.7666 0.812873 74.7364 0.812873 80.2736 0.818214C78.6577 6.15949 76.8963 12.0189 74.0254 17.0237C72.7057 19.3257 70.6858 20.5222 67.9657 20.4367C65.391 20.3566 63.6081 19.08 62.2992 16.9275C61.6852 15.918 61.7229 15.0207 62.1107 13.9951C63.8182 9.42301 71.2137 6.52804 70.0448 6.69362L70.0341 6.68828Z" fill="white"/>
<path d="M45.795 85.205L0 0.871582H23.7001L56.5678 64.374L45.795 85.205Z" fill="white"/>
<path d="M65.1701 50.6045L56.498 35.8091L60.4732 35.7984L66.549 46.4917L72.2909 35.7717H75.7598L67.5778 50.5991H65.1701V50.6045Z" fill="white"/>
<path d="M83.2838 35.7449H79.8096L79.8419 50.5669H83.3161L83.2838 35.7449Z" fill="white"/>
<path d="M96.007 50.5349L87.335 35.7395L91.3101 35.7289L97.386 46.4221L103.128 35.7021H106.597L98.4148 50.5295H96.007V50.5349Z" fill="white"/>
<path d="M110.68 50.5028L110.647 35.6861L125.95 35.6487V38.1644L114.132 38.1911V41.5081L121.038 41.492V44.0078L114.143 44.0238L114.154 47.6986L126.117 47.6719V50.4654L110.68 50.5028Z" fill="white"/>
<path d="M137.59 50.4387L128.918 35.6433L132.893 35.6327L138.969 46.3259L144.711 35.606H148.18L139.998 50.4333H137.59V50.4387Z" fill="white"/>
<path d="M155.704 35.5793H152.229L152.262 50.4014H155.736L155.704 35.5793Z" fill="white"/>
<path d="M170.313 38.191L170.339 50.3638L166.855 50.3744L166.828 38.2017L159.971 38.2177V35.5738L177.186 35.5364V38.1803L170.307 38.1963L170.313 38.191Z" fill="white"/>
<path d="M188.604 38.378L191.847 44.3976L185.297 44.4136L188.604 38.3833V38.378ZM187.047 35.5097L178.623 50.3478H182.086L183.821 47.095L193.296 47.0736L195.1 50.3104L199 50.2997L190.398 35.5044H187.047V35.5097Z" fill="white"/>
</svg>
