<svg width="40" height="40" viewBox="0 0 40 40" fill="none" xmlns="http://www.w3.org/2000/svg">
<path d="M20 0C20.7562 0 21.3699 0.613699 21.3699 1.36986V18.6301H38.6301C38.9935 18.6301 39.3419 18.7745 39.5988 19.0314C39.8557 19.2883 40 19.6367 40 20C40 20.3633 39.8557 20.7117 39.5988 20.9686C39.3419 21.2255 38.9935 21.3699 38.6301 21.3699H21.3699V38.6301C21.3699 38.9935 21.2255 39.3419 20.9686 39.5988C20.7117 39.8557 20.3633 40 20 40C19.6367 40 19.2883 39.8557 19.0314 39.5988C18.7745 39.3419 18.6301 38.9935 18.6301 38.6301V21.3699H1.36986C1.00655 21.3699 0.658123 21.2255 0.401224 20.9686C0.144324 20.7117 0 20.3633 0 20C0 19.6367 0.144324 19.2883 0.401224 19.0314C0.658123 18.7745 1.00655 18.6301 1.36986 18.6301H18.6301V1.36986C18.6301 0.613699 19.2438 0 20 0Z" fill="white"/>
</svg>
